<svg width="262" height="262" viewBox="0 0 262 262" fill="none" xmlns="http://www.w3.org/2000/svg">
<path d="M118.506 57.1777C119.462 61.5546 120.695 56.8386 120.232 50.6739C119.308 38.7452 118.506 35.2929 117.581 39.0534C117.458 39.4849 117.674 53.3864 118.506 57.1777Z" fill="white"/>
<path d="M136.322 66.8871C137.339 66.5172 140.822 52.7702 141.346 46.9446C141.562 44.5711 141.254 41.2111 139.189 47.6532C137.463 52.9857 136.168 60.8148 135.182 65.5308C135.058 66.1165 135.829 67.0412 136.322 66.8871Z" fill="white"/>
<path d="M166.806 85.6894C164.587 89.4807 164.156 90.6212 164.587 91.1452C165.512 92.2548 165.234 91.3304 168.471 87.1076C170.598 84.3335 168.872 82.1447 166.806 85.6894Z" fill="white"/>
<path d="M78.3738 159.82C72.4248 165.06 63.7326 176.064 58.5542 181.489C54.2081 186.051 55.441 187.962 60.9276 182.044C67.678 174.769 82.2883 160.098 82.2883 158.063C82.2883 157.231 80.254 158.125 78.3738 159.82Z" fill="white"/>
<path d="M172.539 54.7734C173.741 52.4 172.447 51.9068 170.721 54.0953C168.902 56.3762 156.912 73.6682 156.881 76.1033C156.85 79.9562 166.251 67.1645 172.539 54.7734Z" fill="white"/>
<path d="M63.6092 153.779C74.0892 145.949 83.4904 140.155 82.2266 139.353C81.7026 139.014 81.7026 139.014 80.0073 139.908C77.8497 141.048 76.0619 142.313 68.7568 147.213C53.5916 157.385 53.7149 157.231 55.0403 158.094C56.3349 158.926 57.4137 158.371 63.6092 153.779Z" fill="white"/>
<path d="M230.858 115.342C238.964 113.092 238.379 110.626 230.118 112.167C226.234 112.907 224.878 113.985 226.234 115.342C227.036 116.112 227.929 116.143 230.858 115.342Z" fill="white"/>
<path d="M174.05 90.9605C173.064 91.9469 174.358 93.5186 175.529 92.7788C190.201 83.4393 204.072 71.8805 204.072 70.7092C204.072 69.2913 202.284 69.1064 200.219 70.3393C187.273 78.1068 172.724 92.0394 174.05 90.9605Z" fill="white"/>
<path d="M234.865 83.7787C234.865 82.8848 234.618 82.8845 231.628 83.4393C229.625 83.8092 229.224 84.4257 229.933 85.7511C230.58 86.9224 234.865 85.2274 234.865 83.7787Z" fill="white"/>
<path d="M98.4705 168.759C93.9394 173.66 89.5008 181.273 84.6307 187.962C77.3255 198.011 80.9935 198.411 85.4629 191.815C86.5726 190.181 97.6691 175.571 100.659 169.499C102.354 166.108 100.967 166.046 98.4705 168.759Z" fill="white"/>
<path d="M214.984 127.24C214.799 127.301 214.09 127.517 213.381 127.702C210.514 128.442 210.299 129.86 213.073 129.86C220.532 129.86 218.713 125.884 214.984 127.24Z" fill="white"/>
<path d="M191.527 102.642C192.791 102.149 208.048 95.892 216.771 92.3165C222.32 90.0355 224.015 89.0803 224.262 88.0939C224.631 86.6144 223.922 86.3987 221.056 87.1692C218.621 87.8165 197.692 96.9403 191.619 99.9918C188.321 101.656 188.229 103.937 191.527 102.642Z" fill="white"/>
<path d="M226.327 181.92C216.987 172.797 201.822 159.851 196.551 156.244C194.116 154.58 193.777 155.227 195.811 157.416C198.709 160.529 205.644 167.279 208.665 169.838C228.823 186.945 229.995 190.921 231.844 189.072C232.738 188.208 232.584 187.993 226.327 181.92Z" fill="white"/>
<path d="M213.073 199.736C211.685 200.291 214.429 204.391 215.939 204.021C216.987 203.744 216.895 203.25 215.415 201.247C214.151 199.552 213.874 199.397 213.073 199.736Z" fill="white"/>
<path d="M202.808 187.099C204.997 191.722 206.692 193.603 208.171 193.048C209.651 192.462 209.127 191.075 205.952 187.192C202.624 183.092 201.421 184.232 202.808 187.099Z" fill="white"/>
<path d="M185.454 186.514C183.882 186.853 187.766 195.391 194.332 205.932C197.938 211.727 200.188 215.518 201.113 217.245C202.993 220.882 206.26 221.498 201.483 213.083C192.544 197.456 187.458 186.051 185.454 186.514Z" fill="white"/>
<path d="M217.912 159.697C217.912 158.248 210.884 154.549 209.96 155.505C209.281 156.183 209.559 156.614 211.747 158.495C215.477 161.669 217.912 162.163 217.912 159.697Z" fill="white"/>
<path d="M238.224 137.196C238.964 137.011 239.426 136.271 239.303 135.531C239.18 134.791 238.532 134.237 237.762 134.268C229.255 134.637 217.449 135.932 204.072 138.552C201.698 139.014 198.739 140.463 204.781 140.432C212.98 140.34 233.077 138.583 238.224 137.196Z" fill="white"/>
<path d="M193.068 168.019C182.68 139.785 176.855 144.501 182.619 140.062C201.452 125.606 204.873 123.356 211.87 120.459C217.049 118.301 214.645 114.725 206.97 113.092C195.781 110.749 187.643 108.777 176.731 112.29C161.72 117.13 155.217 102.766 150.038 91.9469C140.113 71.2643 117.242 59.2123 106.885 58.041C102.447 57.5478 101.522 56.654 98.3784 61.2775C82.5043 84.5184 66.5377 103.937 49.9854 127.548C48.0435 130.322 27.0526 160.468 26.0046 161.916C19.6549 170.732 24.1552 170.053 27.6075 165.676C31.2755 161.022 39.3513 149.248 60.4654 119.38C84.8468 124.836 97.5153 137.38 105.314 155.042C114.869 176.68 123.53 182.291 143.227 179.578C151.395 178.469 148.282 179.331 164.187 176.989C171.153 175.972 182.126 176.619 188.907 178.468C196.674 180.595 197.198 179.27 193.068 168.019Z" fill="white"/>
<path d="M159.255 202.85C158.268 203.929 159.162 206.241 161.042 215.087C162.953 224.026 163.755 225.721 165.08 223.718C165.604 222.916 165.573 222.762 164.433 218.693C160.487 204.391 160.395 201.586 159.255 202.85Z" fill="white"/>
<path d="M86.4496 154.272C87.7442 152.392 85.7714 151.929 84.1686 153.748C82.3809 155.782 84.9084 156.522 86.4496 154.272Z" fill="white"/>
<path d="M106.577 207.258C105.252 208.028 104.204 212.159 105.344 212.159C106.3 212.159 107.163 211.234 107.656 209.631C108.396 207.412 107.933 206.456 106.577 207.258Z" fill="white"/>
<path d="M115.207 178.776C114.838 178.869 114.437 179.701 113.913 181.427C109.474 196.007 109.259 197.116 110.584 197.301C111.848 197.486 112.341 196.438 113.851 190.705C116.225 181.427 116.564 178.437 115.207 178.776Z" fill="white"/>
<path d="M136.476 188.979C135.336 189.226 136.045 194.589 134.565 203.929C133.979 207.566 133.363 216.535 133.609 217.368C134.01 218.662 136.538 217.707 136.538 216.227C136.63 210.432 138.603 188.517 136.476 188.979Z" fill="white"/>
<path d="M158.114 191.507C156.573 187.685 154.847 188.794 155.771 194.096C156.604 198.904 159.963 196.069 158.114 191.507Z" fill="white"/>
</svg>
