<svg width="95" height="90" viewBox="0 0 95 90" fill="none" xmlns="http://www.w3.org/2000/svg">
<path fill-rule="evenodd" clip-rule="evenodd" d="M53.3506 4.38074C62.3837 4.38074 73.2219 8.44349 74.1433 8.52474L74.1682 8.52598C74.653 8.52598 76.5474 9.86495 79.8514 12.5429L76.2728 19.0183L76.5624 19.2749C77.9482 20.5075 79.1313 21.6311 80.0652 22.5168C87.69 29.7485 89.0605 58.1424 87.2636 68.0442C85.4666 77.9461 82.1384 87.6353 66.6434 87.6353C51.1485 87.6353 33.91 78.9916 31.2545 76.2999C29.4842 74.5054 27.4957 73.6457 25.2889 73.7207C25.1982 73.6146 25.1083 73.5087 25.019 73.4031L24.6943 73.3605C21.6403 72.9501 19.4519 72.3978 18.1295 71.7036C15.5463 70.3478 12.707 63.22 12.707 61.6498C12.707 60.0953 8.46749 48.7871 8.3827 47.5904L8.38141 47.5573C8.38141 46.5569 2.84285 41.9583 2.84285 40.4978C2.84285 39.0374 1.72646 39.126 2.84285 33.9796L3.16719 32.4678C4.35521 26.9884 6.68047 17.9153 15.5463 13.9728C25.2889 9.6404 44.2262 4.38074 53.3506 4.38074Z" fill="#F9F9F9"/>
<path d="M94.4371 45.3486H93.1494C92.917 45.3486 92.838 45.4289 92.838 45.5227C92.8194 47.5756 93.2378 49.6777 92.7171 51.7172C92.1965 53.7568 90.4998 54.9663 90.1558 56.8407C88.3754 66.4316 89.505 71.5953 82.9878 80.307C74.853 91.1832 58.6855 93.7048 48.5565 83.7568C47.3665 82.5875 47.8406 81.5744 49.6303 82.1457C51.1317 82.6232 53.9069 85.2028 56.2544 86.0552C75.0017 92.8746 87.6735 73.9472 87.2598 58.0948C87.2598 57.9788 87.1296 57.9029 87.0181 57.9475C78.4602 61.1832 70.7995 55.8276 73.2632 46.8883C73.2911 46.7901 73.2214 46.6875 73.1145 46.6741C70.2975 46.2724 67.857 46.143 65.1283 47.1606C65.054 47.1873 65.0075 47.2588 65.0075 47.3346C65.1469 51.6191 65.054 54.52 61.7024 57.6485C54.567 64.3162 40.3658 59.9514 43.048 49.5572C43.0713 49.4635 43.0108 49.3653 42.9086 49.3519L32.6308 47.6336C32.5146 47.6158 32.4169 47.705 32.4309 47.8166C32.6772 50.3471 31.622 52.0029 29.4233 53.2927C29.3582 53.3328 29.2699 53.3239 29.2095 53.2793C20.8097 46.7544 14.339 56.7381 18.9921 64.2671C21.665 68.5917 25.658 65.8247 26.8248 66.5343C27.2525 66.7931 30.948 73.135 32.3937 74.6078C34.03 76.2769 39.9707 79.4233 40.2078 79.8205C40.51 80.3337 40.2589 81.2174 40.2961 81.8556C40.2961 81.9315 40.2589 82.0029 40.1799 82.0207C39.0085 82.293 32.6726 77.8032 31.7243 77.0356C30.9573 76.4153 29.1165 74.0454 28.8469 73.9696C28.0334 73.7375 26.3832 74.7997 25.1885 74.8398C22.5064 74.9335 15.5057 72.1888 13.6231 70.3144C11.0292 67.7259 11.3686 64.4902 10.3134 61.442C9.68118 59.6256 6.85954 57.9297 5.97633 56.0597C4.79562 53.5649 2.43418 50.4899 1.74621 48.1781C1.07683 45.9288 0.862996 42.5548 0.077401 37.351C-0.824406 31.4108 6.3668 18.0353 10.5737 13.4652C19.3686 3.91003 50.4577 -1.749 63.1109 0.486946C67.3178 1.23226 79.6735 6.32003 81.8908 9.68064C83.2017 11.6711 82.1 12.0415 82.2813 13.3983C82.3696 14.0499 83.0111 14.6792 83.1041 15.6833C83.2389 17.1516 82.4533 18.5485 82.6067 19.6643C82.7694 20.847 86.093 25.7428 86.8136 27.7155C88.222 31.5759 88.2918 36.5967 89.7235 40.0957C89.9141 40.5598 92.1547 44.1436 92.3685 44.273C92.9728 44.6256 93.8095 44.2463 94.5161 44.3043C95.2227 44.3623 95.1204 45.3575 94.4371 45.362V45.3486ZM9.1559 33.7806H9.1652V49.1466C9.1652 52.4492 12.884 57.412 14.0368 60.536C14.7852 62.5622 14.6551 64.8919 15.9287 66.753C17.751 69.4084 22.9154 70.908 26.1461 70.8008C26.2577 70.8008 26.3367 70.6937 26.3088 70.5866L25.9462 69.1987C25.9183 69.096 25.8021 69.0469 25.7045 69.0915C23.1711 70.176 20.0984 68.489 18.2204 66.7887C13.4743 62.4864 13.3442 53.6988 18.9596 50.0704C20.6888 48.9547 23.0828 49.2269 22.6784 46.8437C22.6644 46.7634 22.5854 46.7009 22.5017 46.7009L17.9229 46.75C17.8625 46.75 17.8067 46.7812 17.7788 46.8258L16.3796 48.9145C13.7951 45.2727 19.8428 45.2058 22.4692 45.2995C22.5482 45.2995 22.6179 45.2504 22.6272 45.1745C24.3332 35.3873 28.5215 20.9853 36.9074 14.6345C44.4193 8.94425 60.4752 6.15937 69.8233 6.98055C71.8454 7.15907 73.8117 8.04273 75.8385 8.10521C76.0244 8.10968 76.0895 7.85975 75.9175 7.78388C70.6136 5.3114 65.119 2.94157 59.1318 2.51759C49.2584 1.82137 23.9753 6.77971 15.9845 12.4075C9.06293 17.2855 0.291231 33.1156 4.49811 41.1311C4.64222 41.4078 6.19946 44.1168 6.79447 43.6125C6.82236 43.5902 6.8363 43.55 6.8456 43.5143C6.91533 43.0234 7.42201 39.3772 7.51033 38.739C7.51963 38.672 7.53358 38.614 7.55682 38.5515L9.16055 33.7806H9.1559ZM86.3022 37.9222C85.591 31.6518 83.4899 25.4527 79.8687 20.1909C79.8408 20.1507 79.8036 20.124 79.7571 20.115C75.8989 19.3072 71.9012 19.3563 67.9546 19.4456C62.6972 19.5706 53.0423 19.9901 48.2404 21.4941C40.6541 23.8684 42.0393 27.162 38.3763 32.107C36.7354 34.3206 34.3461 35.182 33.091 37.7437C32.2635 39.4263 30.3762 45.8395 32.7237 46.6161C35.7127 47.6024 40.0079 47.3168 43.1689 47.531C43.2247 47.531 43.2712 47.5131 43.3083 47.473C46.804 43.5099 50.5972 36.9359 56.8169 37.3064C59.155 37.4447 59.9732 38.739 58.5972 40.4929C58.5275 40.5822 58.56 40.7116 58.6623 40.7562C61.628 42.0862 63.2504 43.6795 64.6542 46.5268C64.696 46.6161 64.8076 46.6518 64.8959 46.6072C67.6432 45.1879 70.4648 44.1436 73.4352 45.6253C73.5142 45.6655 73.6072 45.6432 73.6583 45.5762C74.0999 44.9648 76.136 42.1442 76.8147 41.1981C76.903 41.0776 76.8007 40.9213 76.6473 40.9347C71.1714 41.448 69.6699 35.1641 76.2057 36.9939C77.4097 37.3331 80.6636 39.3727 80.9936 39.395C81.6537 39.4352 84.3638 37.5295 86.0791 38.1008C86.1999 38.1409 86.3208 38.0427 86.3069 37.9222H86.3022ZM74.4346 51.1817C74.3649 51.2129 74.3184 51.2843 74.3231 51.3602C74.8391 56.1043 79.7246 57.9431 84.2522 57.412C88.8589 56.8764 87.8688 53.6899 87.7432 50.0213C87.6735 47.9951 87.4272 44.9826 87.1994 42.9565C87.1529 42.5369 86.9809 41.4524 86.7624 40.6491C86.6183 40.118 86.1116 39.7565 85.5399 39.7878C84.8008 39.8279 83.713 39.8904 82.8763 39.935C82.3185 39.9663 81.9884 40.5375 82.2487 41.0151C83.1459 42.6485 83.8896 44.3801 82.5462 46.0404C82.4672 46.1341 82.3092 46.1207 82.2534 46.0136C81.4399 44.4292 80.6822 42.528 78.7949 41.8407C78.7531 41.8229 78.7019 41.8229 78.6601 41.8452C77.4701 42.4566 74.4439 46.6027 74.6299 47.8255C74.6485 47.9371 74.7879 47.9862 74.8855 47.9282C76.6101 46.991 78.1906 46.4286 80.0639 47.5667C84.3591 50.182 80.5474 54.3102 78.8553 49.5215C78.8367 49.4635 78.7856 49.4188 78.7298 49.401C76.7124 48.7985 76.0198 50.481 74.43 51.1728L74.4346 51.1817ZM47.1573 46.4956C46.4554 46.1073 45.5489 46.384 45.2142 47.0936C38.1764 61.9508 65.1888 63.9725 63.5525 48.7003C62.6786 40.5554 51.3363 39.2879 47.5943 46.5313C47.5478 46.6161 47.4408 46.6518 47.3525 46.6027L47.1619 46.4956H47.1573ZM90.802 51.6949C90.8391 51.8779 91.1134 51.8735 91.1506 51.6905C91.6433 49.218 91.648 46.808 90.8391 44.3667C90.6857 43.8981 90.7229 43.0145 90.0536 43.1216V48.2317C90.0536 48.2317 90.0536 48.254 90.0536 48.2674L90.7973 51.6994L90.802 51.6949Z" fill="black"/>
<path d="M31.4784 61.8584C31.0879 62.1797 26.9786 59.1896 26.0768 58.7924C24.143 57.9444 22.0094 57.931 20.3359 56.726C22.0931 54.8426 24.9333 55.7129 26.9414 56.6234C28.2151 57.1991 32.9519 60.64 31.4784 61.8539V61.8584Z" fill="black"/>
<path d="M9.16538 33.7512L7.52446 38.6471L6.84114 43.5697C6.27867 44.2481 4.6517 41.4141 4.50295 41.1285C0.296064 33.113 9.06776 17.2829 15.9894 12.4049C23.9801 6.77709 49.2586 1.81875 59.1366 2.51497C65.3702 2.9568 71.0693 5.50961 76.5778 8.0892C74.286 8.26326 72.092 7.17876 69.8235 6.98239C60.4754 6.16567 44.4195 8.95056 36.9076 14.6364C28.4845 21.0139 24.2916 35.5185 22.6042 45.3058C20.0614 45.2032 13.7441 45.2076 16.3752 48.9163L17.8302 46.7473L22.6553 46.6938C23.1852 49.2377 20.7262 48.9297 18.9644 50.0678C13.349 53.6962 13.4792 62.4837 18.2253 66.786C20.1544 68.5311 23.334 70.2582 25.9046 69.0041L26.3694 70.7893C23.1527 70.9768 17.7976 69.4638 15.9336 66.7548C14.6552 64.8982 14.7854 62.5685 14.0416 60.5379C12.8888 57.4138 9.17003 52.451 9.17003 49.1484V33.7512H9.16538ZM45.8512 6.5718L42.1743 5.63904C41.4026 6.30402 45.0006 8.47302 45.8884 7.86605L45.8512 6.5718ZM38.4323 9.67355C38.2789 9.46379 34.0999 8.05796 33.3375 8.31681C34.1882 9.77174 35.9035 10.5751 37.3585 11.3829C38.3253 11.5391 38.7669 10.1198 38.4323 9.66909V9.67355ZM24.9749 14.5516C25.8395 14.3775 32.4543 18.72 32.4032 16.5688C31.3433 15.1184 29.8837 14.8193 28.2195 14.3463C27.3875 14.1097 24.51 12.8869 24.9749 14.556V14.5516ZM26.6995 22.7143C25.7186 21.7414 20.5402 20.4918 18.9319 19.9205C18.9133 21.0318 20.4798 21.7369 21.3072 22.3216C22.0231 22.8259 26.8296 26.1017 27.2898 24.1335C27.3549 23.8524 26.9505 22.9642 26.6995 22.7143ZM14.553 27.5299C13.3072 27.8512 14.1857 28.5519 14.7808 29.0294C15.6407 29.7212 19.736 32.7158 20.5728 31.5376C22.1904 29.257 16.338 27.0746 14.553 27.5343V27.5299Z" fill="white"/>
<path d="M14.5532 27.5276C16.3383 27.0679 22.1861 29.2503 20.573 31.5309C19.7363 32.7136 15.6456 29.7144 14.781 29.0227C14.186 28.5451 13.3074 27.8445 14.5532 27.5231V27.5276Z" fill="black"/>
<path d="M26.6994 22.7106C26.9504 22.9605 27.3548 23.8486 27.2897 24.1298C26.8295 26.0979 22.0183 22.8221 21.3071 22.3178C20.4797 21.7332 18.9178 21.0236 18.9317 19.9167C20.5401 20.4925 25.7185 21.7376 26.6994 22.7106Z" fill="black"/>
<path d="M24.9753 14.5476C24.5104 12.8784 27.3878 14.1013 28.2199 14.3378C29.8841 14.8153 31.3437 15.1143 32.4036 16.5603C32.4547 18.716 25.8445 14.3735 24.9753 14.5431V14.5476Z" fill="black"/>
<path d="M38.4317 9.67141C38.7617 10.1222 38.3201 11.5414 37.3579 11.3852C35.9029 10.5774 34.1922 9.7696 33.3369 8.31913C34.0993 8.05582 38.2783 9.46611 38.4317 9.67587V9.67141Z" fill="black"/>
<path d="M45.8511 6.56923L45.8882 7.86349C45.0004 8.47045 41.4024 6.30146 42.1741 5.63647L45.8511 6.56923Z" fill="black"/>
<path d="M60.7216 52.4505L58.4438 52.745C56.0824 48.2196 51.8197 49.3353 51.9313 54.2803L50.5135 54.0794C48.4821 52.6647 53.098 43.654 58.6902 48.4561C59.4711 49.1256 61.4002 51.5132 60.7169 52.4505H60.7216Z" fill="black"/>
<path d="M63.7662 70.2889L66.044 69.9944C68.4054 74.5198 72.6681 73.4041 72.5565 68.4591L73.9743 68.6599C76.0057 70.0747 71.3898 79.0854 65.7976 74.2833C65.0167 73.6138 63.0876 71.2261 63.7709 70.2889H63.7662Z" fill="black"/>
<path d="M64.2305 58.5976C67.8052 60.4988 70.9429 60.8246 72.0027 59.5883C72.2212 59.3339 72.4443 56.9864 72.4211 56.2233" stroke="#1D1D1B" stroke-width="4" stroke-miterlimit="10"/>
<path d="M54.1438 61.1812C60.1332 61.1812 64.9887 56.5196 64.9887 50.7691C64.9887 45.0187 60.1332 40.3571 54.1438 40.3571C48.1543 40.3571 43.2988 45.0187 43.2988 50.7691C43.2988 56.5196 48.1543 61.1812 54.1438 61.1812Z" fill="black"/>
<path d="M83.2668 59.0566C89.2563 59.0566 94.1117 54.3949 94.1117 48.6445C94.1117 42.8941 89.2563 38.2324 83.2668 38.2324C77.2773 38.2324 72.4219 42.8941 72.4219 48.6445C72.4219 54.3949 77.2773 59.0566 83.2668 59.0566Z" fill="black"/>
</svg>
