<svg width="270" height="263" viewBox="0 0 270 263" fill="none" xmlns="http://www.w3.org/2000/svg">
<path d="M256.797 70.6468C245.657 48.8119 207.558 20.2924 185.388 17.1731C175.808 15.8363 174.582 22.5198 184.052 24.525C201.987 28.4241 236.077 54.7162 243.095 70.0898C260.028 107.298 255.126 140.608 223.822 201.768C181.712 283.983 42.459 262.148 23.4092 170.352C2.68866 70.7582 74.7657 -11.2347 160.211 14.7221C174.471 19.0668 173.246 11.6032 158.875 6.81294C139.602 0.463001 122 -1.20804 106.738 1.79983C28.3109 17.2848 -16.0271 94.7097 6.36483 176.702C21.9612 233.629 103.285 274.624 171.129 259.807C206.332 252.12 229.058 234.297 243.986 202.659C273.396 139.716 276.404 109.081 256.797 70.6468Z" fill="black"/>
<path d="M46.5809 118.216C37.3345 213.242 144.059 257.469 186.504 176.256C192.965 163.891 195.86 159.657 203.436 151.636C229.615 123.897 234.183 104.959 221.149 78.7791C191.293 18.7326 58.0554 0.797274 46.5809 118.216ZM193.744 149.965C186.837 157.429 183.718 162.107 177.591 174.027C132.139 262.369 28.3109 188.287 63.4027 92.4805C79.2218 49.2564 114.871 26.8656 158.763 42.4619C220.48 64.4082 234.183 106.073 193.744 149.965Z" fill="black"/>
<path d="M138.377 89.3615C177.033 91.3667 172.912 109.191 155.311 112.199C142.388 114.427 141.384 115.095 132.806 127.461C126.234 136.93 118.547 139.158 112.308 133.143C102.728 123.896 102.059 104.958 113.979 94.3746C118.993 89.9185 116.764 88.5828 109.746 91.702C90.9191 99.9458 87.2428 138.824 117.21 142.278C129.91 143.726 139.825 138.156 145.172 126.57C148.514 119.329 151.076 117.546 159.989 116.098C182.826 112.422 183.606 94.0404 161.214 86.5764C149.071 82.5659 130.356 81.5633 126.234 84.5712C122 87.6904 122.669 88.4703 138.377 89.3615Z" fill="black"/>
</svg>
