<svg width="209" height="209" viewBox="0 0 209 209" fill="none" xmlns="http://www.w3.org/2000/svg">
<path d="M156.714 86.0653L155.291 86.5642C155.035 86.6542 154.98 86.7773 155.017 86.8852C155.825 89.2557 157.136 91.5134 157.383 94.0629C157.631 96.6125 156.244 98.662 156.62 100.953C158.522 112.683 161.854 118.19 158.167 130.743C153.564 146.415 136.714 155.581 121.505 148.053C119.718 147.168 119.833 145.818 122.042 145.782C123.894 145.75 128.002 147.645 130.94 147.717C154.411 148.304 160.779 121.607 153.925 103.519C153.878 103.385 153.704 103.348 153.599 103.443C145.446 110.483 134.818 107.285 133.934 96.0405C133.926 95.9167 133.807 95.8255 133.683 95.8515C130.408 96.4805 127.659 97.2769 125.054 99.5054C124.982 99.565 124.96 99.6652 124.99 99.7525C126.873 104.631 127.941 108.006 125.499 112.906C120.303 123.345 102.847 123.822 101.617 110.818C101.605 110.701 101.499 110.612 101.38 110.636L89.3279 112.639C89.1923 112.664 89.1204 112.804 89.1808 112.928C90.4742 115.745 89.9761 118.06 88.0665 120.396C88.0107 120.468 87.9095 120.492 87.8247 120.464C75.9084 116.207 72.7854 130.206 80.9661 137.071C85.6651 141.013 88.9618 136.281 90.5376 136.646C91.1147 136.778 97.758 142.647 99.9501 143.783C102.432 145.07 110.267 146.391 110.69 146.756C111.231 147.23 111.31 148.344 111.608 149.064C111.639 149.152 111.627 149.248 111.547 149.3C110.362 150.067 101.548 147.353 100.19 146.837C99.0919 146.42 96.1012 144.405 95.7726 144.422C94.7799 144.47 93.3847 146.332 92.0805 146.841C89.154 147.988 80.3094 147.54 77.4723 146.112C73.5611 144.137 72.6306 140.281 70.2344 137.181C68.8027 135.335 65 134.475 63.2693 132.665C60.9577 130.251 57.1071 127.626 55.4139 125.231C53.7665 122.901 52.1687 119.1 49.2007 113.414C45.8072 106.925 48.3579 88.742 51.1633 81.8514C57.0279 67.4448 89.1043 48.8865 103.991 46.5586C108.941 45.7868 124.65 46.8571 128.456 49.8666C130.708 51.6501 129.64 52.5033 130.388 53.9949C130.748 54.7108 131.711 55.1867 132.219 56.3066C132.961 57.9446 132.656 59.857 133.276 61.082C133.933 62.3804 139.582 66.7287 141.174 68.7203C144.288 72.6186 146.391 78.3713 149.385 81.8445C149.783 82.305 153.706 85.5624 153.994 85.6286C154.804 85.8003 155.576 85.0395 156.38 84.8326C157.185 84.6256 157.473 85.8109 156.72 86.0808L156.714 86.0653ZM57.7937 105.787L57.8039 105.783L64.0042 123.472C65.3368 127.273 71.4493 131.546 73.984 134.695C75.6287 136.738 76.4249 139.47 78.5835 141.119C81.6689 143.47 87.9818 143.195 91.5091 141.82C91.6324 141.777 91.6765 141.623 91.6025 141.511L90.6417 140.054C90.5695 139.946 90.4212 139.935 90.3313 140.024C87.969 142.254 83.8924 141.502 81.1307 140.272C74.1493 137.158 70.4596 127.093 75.2017 120.741C76.6627 118.786 79.4183 118.172 78.0097 115.586C77.9619 115.499 77.8494 115.457 77.7569 115.49L72.7162 117.32C72.6494 117.343 72.6004 117.401 72.5876 117.463L71.884 120.41C67.558 117.219 74.2149 114.799 77.1555 113.889C77.2428 113.858 77.3001 113.775 77.2797 113.684C75.216 101.757 74.0337 83.5552 80.7392 72.9958C86.7454 63.5353 103.367 54.1095 114.03 51.4333C116.337 50.8555 118.866 51.111 121.131 50.3977C121.339 50.3308 121.31 50.0179 121.089 49.9972C114.23 49.2058 107.201 48.6063 100.413 50.4377C89.2195 53.4612 63.2772 68.9636 56.7166 78.5376C51.0351 86.8344 47.7281 108.455 55.6118 116.053C55.8827 116.315 58.6969 118.831 59.151 118.019C59.1728 117.983 59.172 117.931 59.1679 117.887C59.0469 117.294 58.1356 112.901 57.9757 112.132C57.959 112.051 57.951 111.979 57.9514 111.898L57.7988 105.785L57.7937 105.787ZM144.727 80.6679C141.411 73.7252 136.588 67.4032 130.462 62.7489C130.415 62.7134 130.363 62.697 130.308 62.7047C125.718 63.2695 121.32 64.8747 116.994 66.5064C111.234 68.687 100.733 72.9102 96.0324 76.5018C88.606 82.1739 91.4659 85.4287 89.4129 92.5402C88.4925 95.7241 86.1994 97.6412 85.8459 101.076C85.6104 103.334 86.1123 111.448 89.0201 111.432C92.7215 111.41 97.3533 109.417 100.933 108.439C100.995 108.417 101.039 108.379 101.064 108.318C103.328 102.402 104.868 93.3646 111.891 91.3815C114.531 90.635 115.958 91.8079 115.145 94.36C115.104 94.4898 115.192 94.6262 115.323 94.6379C119.137 95.02 121.573 96.2256 124.274 98.9595C124.356 99.046 124.494 99.0439 124.573 98.9583C127.037 96.2603 129.734 93.965 133.615 94.52C133.718 94.5356 133.812 94.4739 133.842 94.377C134.083 93.5021 135.195 89.4664 135.563 88.1144C135.612 87.9414 135.436 87.8012 135.272 87.8761C129.427 90.5882 125.232 83.9363 133.194 83.5107C134.661 83.4347 139.081 84.522 139.454 84.4199C140.2 84.2104 142.426 80.9668 144.553 80.9599C144.702 80.9593 144.796 80.7994 144.732 80.6661L144.727 80.6679ZM136.961 100.529C136.897 100.592 136.874 100.692 136.91 100.778C139.395 106.039 145.536 106.263 150.326 103.898C155.201 101.497 152.821 98.2119 151.202 94.0375C150.307 91.7321 148.819 88.3597 147.75 86.1155C147.529 85.6506 146.902 84.4688 146.336 83.6287C145.963 83.0731 145.257 82.8533 144.637 83.1108C143.837 83.4433 142.66 83.9366 141.753 84.3122C141.149 84.5642 141.015 85.3497 141.495 85.7986C143.146 87.3313 144.667 89.0366 143.852 91.4682C143.802 91.6067 143.622 91.6525 143.517 91.5508C141.979 90.0421 140.374 88.147 138.011 88.087C137.958 88.0827 137.901 88.1025 137.864 88.1444C136.796 89.3092 135.124 95.2543 135.823 96.59C135.889 96.7112 136.062 96.7137 136.147 96.6091C137.675 94.8621 139.195 93.6025 141.724 94.1868C147.527 95.5335 144.98 101.762 141.177 96.9053C141.133 96.8457 141.059 96.8141 140.99 96.8152C138.517 96.9032 138.431 99.1083 136.953 100.521L136.961 100.529ZM104.924 105.702C103.991 105.527 103.101 106.196 103.017 107.143C101.234 126.972 131.904 118.835 123.933 101.888C119.681 92.8508 106.634 95.7858 105.421 105.574C105.404 105.689 105.3 105.772 105.182 105.749L104.929 105.7L104.924 105.702ZM155.258 94.7792C155.373 94.9754 155.674 94.864 155.641 94.639C155.188 91.6019 154.221 88.8258 152.342 86.3289C151.983 85.8489 151.668 84.8173 150.971 85.1999L153.033 91.0824C153.033 91.0824 153.042 91.1081 153.048 91.1235L155.254 94.7861L155.258 94.7792Z" fill="black"/>
<path d="M93.7947 129.464C93.4928 129.985 87.7447 128.135 86.5877 128.027C84.1084 127.8 81.7448 128.611 79.4091 127.873C80.5912 125.024 84.0813 124.925 86.6681 125.196C88.3081 125.365 94.9317 127.491 93.7929 129.459L93.7947 129.464Z" fill="black"/>
<path d="M57.7913 105.747L57.9532 112.019L59.1843 117.95C58.8364 118.949 55.8947 116.317 55.6151 116.046C47.7313 108.448 51.0384 86.8274 56.7199 78.5307C63.2804 68.9567 89.2176 53.456 100.416 50.4307C107.483 48.5244 114.812 49.2553 121.941 50.0908C119.478 51.179 116.616 50.7806 114.03 51.4333C103.368 54.1146 86.7471 63.5404 80.7391 72.9958C74.0033 83.6004 75.2219 101.922 77.3062 113.842C74.4545 114.709 67.4744 117.161 71.8788 120.411L72.6116 117.351L77.9227 115.42C79.5349 118.143 76.6929 118.741 75.205 120.734C70.4629 127.086 74.1526 137.151 81.134 140.265C83.9702 141.527 88.1811 142.283 90.5162 139.844L91.7502 141.719C88.2707 143.181 81.7418 143.513 78.5886 141.117C76.4266 139.475 75.6304 136.743 73.989 134.693C71.4544 131.544 65.3418 127.272 64.0092 123.47L57.7964 105.745L57.7913 105.747ZM87.3697 60.2475L82.9295 60.5982C82.345 61.6626 87.1966 62.7656 87.933 61.723L87.3697 60.2475ZM80.4217 66.6922C80.1676 66.5101 74.9817 66.5107 74.2436 67.1041C75.7708 68.4493 77.9907 68.7096 79.9247 69.0758C81.0563 68.8811 80.9717 67.0763 80.4199 66.687L80.4217 66.6922ZM67.5169 77.5209C68.4022 76.9855 77.4651 79.4218 76.5406 76.9653C74.784 75.7062 73.0502 75.9274 71.02 76.0276C70.005 76.0776 66.3314 75.7846 67.5187 77.526L67.5169 77.5209ZM72.7166 86.2493C71.24 85.5093 65.0126 86.0769 63.0045 86.0424C63.4323 87.3288 65.4482 87.5337 66.5986 87.8861C67.5933 88.1894 74.2273 90.0983 73.9417 87.6543C73.9002 87.3054 73.0949 86.4397 72.7166 86.2493ZM61.2353 96.4982C59.9881 97.3507 61.2418 97.817 62.0921 98.1362C63.3217 98.5994 69.0562 100.46 69.5056 98.7797C70.3732 95.5277 63.0244 95.2827 61.2371 96.5034L61.2353 96.4982Z" fill="#8815E6"/>
<path d="M61.2355 96.498C63.0228 95.2773 70.3664 95.5242 69.5039 98.7743C69.0564 100.46 63.3252 98.5922 62.0905 98.1309C61.2402 97.8116 59.9865 97.3454 61.2337 96.4929L61.2355 96.498Z" fill="black"/>
<path d="M72.7171 86.2495C73.0954 86.44 73.9007 87.3056 73.9422 87.6545C74.2278 90.0985 67.5886 88.1914 66.5991 87.8863C65.4487 87.5339 63.4362 87.3221 63.005 86.0426C65.0149 86.0822 71.2405 85.5095 72.7171 86.2495Z" fill="black"/>
<path d="M67.5165 77.521C66.3292 75.7797 70.0027 76.0727 71.0178 76.0226C73.0497 75.9276 74.7836 75.7064 76.5384 76.9604C77.4647 79.422 68.4069 76.9839 67.5146 77.5159L67.5165 77.521Z" fill="black"/>
<path d="M80.422 66.6922C80.9686 67.0832 81.0532 68.888 79.9267 69.081C77.9927 68.7148 75.7762 68.4476 74.2456 67.1092C74.9819 66.5108 80.1696 66.5153 80.4238 66.6973L80.422 66.6922Z" fill="black"/>
<path d="M87.3697 60.2473L87.9331 61.7228C87.1967 62.7655 82.3451 61.6625 82.9296 60.5981L87.3697 60.2473Z" fill="black"/>
<path d="M122.317 107.3L119.918 108.522C115.483 104.227 111.222 107.163 113.34 112.812L111.692 113.13C108.876 112.288 110.342 100.128 118.46 103.489C119.593 103.957 122.689 105.958 122.312 107.302L122.317 107.3Z" fill="black"/>
<path d="M132.88 126.655L135.278 125.434C139.714 129.729 143.975 126.793 141.856 121.144L143.504 120.826C146.32 121.667 144.855 133.828 136.736 130.467C135.603 129.998 132.508 127.997 132.885 126.654L132.88 126.655Z" fill="black"/>
<path d="M128.678 113.021C133.396 113.824 136.995 112.984 137.667 111.15C137.806 110.773 137.106 107.984 136.772 107.114" stroke="#1D1D1B" stroke-width="2" stroke-miterlimit="10"/>
<path d="M118.572 119.903C125.192 117.583 128.677 110.335 126.357 103.716C124.036 97.0961 116.789 93.6108 110.169 95.9311C103.55 98.2515 100.065 105.499 102.385 112.118C104.705 118.738 111.952 122.223 118.572 119.903Z" fill="black"/>
<path d="M149.899 106.17C156.519 103.85 160.004 96.6024 157.684 89.9828C155.363 83.3632 148.116 79.8779 141.497 82.1982C134.877 84.5185 131.392 91.7658 133.712 98.3854C136.032 105.005 143.28 108.49 149.899 106.17Z" fill="black"/>
</svg>
