<svg width="125" height="243" viewBox="0 0 125 243" fill="none" xmlns="http://www.w3.org/2000/svg">
<g opacity="0.5">
<path fill-rule="evenodd" clip-rule="evenodd" d="M104.688 2.37795C49.9897 13.7415 -21.4194 90.6092 6.09697 169.037C33.2793 246.573 145.573 271.527 208.961 200.563C238.928 166.92 249.957 135.95 245.724 96.5135C241.936 60.9761 201.274 12.4046 175.317 12.4046C168.411 12.4046 172.198 16.7493 184.787 23.2107C266.445 65.2094 239.151 179.507 160.39 218.832C71.936 263.059 -7.60576 193.211 16.4575 103.755C32.2767 44.9342 85.9727 -5.41977 158.607 10.6222C166.74 12.4046 167.742 9.17395 161.615 5.60907C151.366 -0.406661 124.072 -1.74394 104.688 2.37795ZM107.808 79.1347C55.6712 96.9591 69.4851 173.381 124.741 173.381C171.753 173.381 189.466 106.094 147.912 84.9277C135.435 78.5777 131.425 83.4794 142.342 91.7232C170.527 113.001 159.387 157.005 123.961 164.023C101.012 168.591 82.6306 137.51 93.9937 113.335C100.121 100.301 115.049 87.4899 127.303 84.7048C133.987 83.1452 134.321 81.8084 128.64 78.9119C123.738 76.3497 115.272 76.4611 107.808 79.1347Z" fill="#F8E2FF"/>
</g>
</svg>
