<svg width="231" height="232" viewBox="0 0 231 232" fill="none" xmlns="http://www.w3.org/2000/svg">
<g filter="url(#filter0_d_5183_59098)">
<path d="M222.826 112.825L221.05 113.091C220.495 113.091 218.487 113.535 218.487 113.768C218.442 118.873 219.164 121.447 219.164 126.796C219.164 132.145 217.055 136.672 216.223 141.333C211.973 165.18 214.669 178.02 199.111 199.681C179.692 226.725 141.096 232.994 116.916 208.259C114.075 205.352 115.207 202.833 119.479 204.253C123.063 205.44 129.688 211.855 135.292 213.974C180.047 230.93 210.297 183.868 209.31 144.451C209.31 144.163 208.843 143.808 208.732 144.085C195.238 178.131 172.168 146.881 175.896 116.587C175.93 116.331 175.797 116.087 175.541 116.054C168.816 115.055 162.991 114.733 156.477 117.263C156.299 117.33 156.188 117.508 156.188 117.696C156.521 128.349 149.696 152.241 141.695 160.02C124.661 176.599 97.3627 149.056 103.766 123.223C103.821 122.99 103.677 122.745 103.433 122.712L78.8973 118.44C78.6198 118.395 78.3868 118.617 78.4201 118.895C79.0082 125.187 76.4892 129.304 71.2403 132.511C71.0849 132.611 70.8741 132.588 70.7298 132.478C50.6775 116.254 35.2304 141.078 46.3386 159.798C52.7194 170.551 62.2517 163.671 65.0371 165.436C66.058 166.079 74.8801 181.848 78.3313 185.51C82.2375 189.66 96.4195 197.484 96.9854 198.472C97.7067 199.748 97.1075 201.945 97.1963 203.532C97.1963 203.72 97.1075 203.898 96.9188 203.942C94.1224 204.619 78.9971 193.456 76.7333 191.547C74.9023 190.005 70.5079 184.112 69.8643 183.923C67.9223 183.346 63.9828 185.987 61.1309 186.087C54.7279 186.32 38.0158 179.496 33.5215 174.835C27.3294 168.399 28.1395 160.353 25.6204 152.774C24.1112 148.257 17.3753 144.041 15.2669 139.391C12.4483 133.188 6.81097 125.542 5.16861 119.794C3.57064 114.201 3.06017 105.811 1.18477 92.8722C-0.968049 78.1021 16.199 44.8443 26.2419 33.4809C47.2374 9.72219 121.454 -4.34883 151.66 1.21078C161.703 3.06398 191.199 15.7146 196.492 24.0707C199.622 29.0199 196.992 29.941 197.425 33.3145C197.635 34.9346 199.167 36.4993 199.389 38.9962C199.711 42.6471 197.835 46.1204 198.201 48.8947C198.59 51.8354 206.524 64.0089 208.244 68.9137C211.607 78.5127 211.773 90.9968 215.191 99.6969C215.646 100.851 217.832 109.762 218.342 110.084C219.785 110.96 220.984 110.161 222.67 110.306C224.357 110.45 224.468 112.825 222.837 112.836L222.826 112.825ZM22.8462 84.0057H22.8684V122.213C22.8684 130.425 31.746 142.764 34.4981 150.532C36.2847 155.57 35.974 161.363 39.0145 165.991C43.3646 172.593 55.6934 176.322 63.4058 176.056C63.6721 176.056 63.8608 175.789 63.7942 175.523L62.9286 172.072C62.8621 171.816 62.5846 171.694 62.3516 171.805C56.3037 174.502 48.9686 170.307 44.4854 166.079C33.1553 155.382 32.8446 133.532 46.2498 124.51C50.3779 121.736 56.0929 122.413 55.1274 116.487C55.0941 116.287 54.9055 116.132 54.7057 116.132L43.7752 116.254C43.6309 116.254 43.4977 116.331 43.4312 116.442L40.091 121.636C33.921 112.581 48.3582 112.414 54.6281 112.647C54.8167 112.647 54.9832 112.525 55.0054 112.336C59.078 88.0006 69.0764 52.1905 89.0954 36.3995C107.028 22.2507 145.357 15.3262 167.673 17.368C172.501 17.8119 177.195 20.0091 182.033 20.1645C182.477 20.1756 182.632 19.5542 182.222 19.3655C169.56 13.2178 156.443 7.32524 142.15 6.27102C118.58 4.53989 58.2235 16.8687 39.1477 30.862C22.6242 42.9911 1.68414 82.3522 11.7269 102.283C12.071 102.971 15.7885 109.706 17.2089 108.452C17.2755 108.397 17.3088 108.297 17.331 108.208C17.4974 106.988 18.707 97.9214 18.9178 96.3345C18.94 96.168 18.9733 96.0238 19.0288 95.8684L22.8573 84.0057H22.8462ZM207.012 94.3148C205.315 78.7235 200.299 63.3097 191.654 50.2263C191.588 50.1265 191.499 50.0599 191.388 50.0377C182.177 48.0291 172.634 48.1512 163.212 48.3731C150.662 48.6839 127.613 49.727 116.15 53.4667C98.0396 59.3703 101.347 67.5599 92.6021 79.8554C88.6848 85.3595 82.981 87.5013 79.9848 93.8709C78.0095 98.0545 73.5041 114.001 79.1081 115.932C86.2435 118.384 96.4971 117.674 104.043 118.207C104.176 118.207 104.287 118.162 104.376 118.062C112.721 108.208 121.776 91.8624 136.624 92.7834C142.206 93.1275 144.159 96.3456 140.874 100.707C140.708 100.929 140.785 101.25 141.03 101.361C148.109 104.668 151.982 108.63 155.334 115.71C155.433 115.932 155.7 116.021 155.911 115.91C162.469 112.381 169.205 109.784 176.296 113.468C176.485 113.568 176.706 113.513 176.829 113.346C177.883 111.826 182.743 104.813 184.363 102.46C184.574 102.16 184.33 101.772 183.964 101.805C170.892 103.081 167.307 87.4569 182.91 92.0067C185.784 92.85 193.552 97.9214 194.34 97.9768C195.915 98.0767 202.385 93.3383 206.48 94.7587C206.768 94.8586 207.057 94.6145 207.024 94.3148H207.012ZM178.682 127.273C178.515 127.351 178.393 127.528 178.415 127.717C180.335 143.919 194.184 165.036 202.64 148.868C207.767 139.058 210.752 133.51 210.453 124.388C210.286 119.35 209.698 111.859 209.154 106.821C209.043 105.778 208.633 103.081 208.111 101.084C207.767 99.7635 206.557 98.8646 205.193 98.9423C203.428 99.0422 200.831 99.1975 198.834 99.3085C197.502 99.3862 196.714 100.807 197.336 101.994C199.478 106.055 201.253 110.361 198.046 114.489C197.857 114.722 197.48 114.689 197.347 114.423C195.405 110.483 193.596 105.756 189.091 104.047C188.991 104.003 188.869 104.003 188.769 104.058C185.928 105.578 178.704 115.887 179.148 118.928C179.192 119.205 179.525 119.328 179.758 119.183C183.875 116.853 187.648 115.455 192.12 118.284C202.374 124.787 193.274 135.052 189.235 123.145C189.191 123.001 189.069 122.89 188.935 122.845C184.119 121.347 182.466 125.531 178.671 127.251L178.682 127.273ZM113.575 115.632C111.9 114.667 109.381 115.233 108.937 117.119C97.3405 165.946 150.906 181.316 152.715 121.114C153.325 100.762 123.552 97.7105 114.619 115.721C114.508 115.932 114.252 116.021 114.042 115.899L113.587 115.632H113.575ZM214.669 128.893C214.758 129.348 215.579 129.348 215.568 128.893C215.446 122.934 215.147 116.82 215.024 109.562C215.002 108.341 215.402 106.799 213.626 107.321L214.47 117.019C214.47 117.019 214.536 119.893 214.547 119.916L214.669 128.904V128.893Z" fill="black"/>
<path d="M76.0678 153.484C75.1357 154.283 65.3259 146.848 63.1731 145.86C58.5567 143.752 53.4632 143.719 49.4683 140.722C53.6629 136.039 60.4432 138.203 65.2371 140.467C68.2777 141.899 79.5856 150.454 76.0678 153.473V153.484Z" fill="black"/>
<path d="M23.0406 83.6934L19.114 95.8795L17.4788 108.132C16.1329 109.821 12.2396 102.767 11.8836 102.056C1.81673 82.1049 22.807 42.7028 39.3701 30.5611C58.4917 16.5532 118.982 4.21159 142.62 5.94453C157.536 7.04427 171.174 13.3984 184.356 19.8191C178.872 20.2524 173.621 17.553 168.193 17.0642C145.823 15.0313 107.402 21.9631 89.4265 36.1154C69.2705 51.9896 59.2369 88.0924 55.1991 112.453C49.1144 112.198 33.9974 112.209 40.2934 121.44L43.7751 116.042L55.3214 115.908C56.5895 122.24 50.7051 121.474 46.4893 124.306C33.0519 133.338 33.3634 155.21 44.7206 165.919C49.3369 170.262 56.9455 174.562 63.0968 171.44L64.2092 175.883C56.5116 176.35 43.6972 172.584 39.2366 165.841C36.1776 161.22 36.4891 155.421 34.7093 150.367C31.9507 142.591 23.0517 130.238 23.0517 122.018V83.6934H23.0406ZM110.817 16.0422L102.018 13.7205C100.172 15.3757 108.782 20.7745 110.906 19.2637L110.817 16.0422ZM93.075 23.7627C92.708 23.2406 82.7078 19.7414 80.8835 20.3857C82.9192 24.0071 87.0238 26.0066 90.5055 28.0173C92.8192 28.4061 93.8759 24.8735 93.075 23.7516V23.7627ZM60.861 35.9155C62.93 35.4822 78.7589 46.2909 78.6366 40.9365C76.1004 37.3262 72.6075 36.582 68.6253 35.4045C66.6342 34.8157 59.7486 31.7719 60.861 35.9266V35.9155ZM64.9879 56.2219C62.6408 53.8002 50.249 50.6898 46.4003 49.2679C46.3558 52.034 50.1044 53.7891 52.0844 55.2444C53.7975 56.4996 65.2993 64.6533 66.4006 59.7544C66.5563 59.0546 65.5885 56.844 64.9879 56.2219ZM35.9218 68.2192C32.9407 69.019 35.043 70.763 36.4669 71.9516C38.5247 73.6735 48.3246 81.1273 50.3269 78.1947C54.1979 72.5182 40.1933 67.0861 35.9218 68.2303V68.2192Z" fill="#8815E6"/>
<path d="M35.6628 68.115C39.9241 66.972 53.8842 72.3985 50.0335 78.0691C48.036 81.0098 38.2706 73.5526 36.2066 71.8326C34.7862 70.6452 32.6888 68.9029 35.6628 68.1039V68.115Z" fill="black"/>
<path d="M64.661 56.1313C65.2603 56.7527 66.2257 58.961 66.0704 59.6601C64.9717 64.5539 53.4863 56.4087 51.7885 55.1547C49.8132 53.701 46.0846 51.9366 46.1179 49.1845C49.9575 50.6161 62.3196 53.7121 64.661 56.1313Z" fill="black"/>
<path d="M60.5438 35.8435C59.4341 31.6932 66.3032 34.7338 68.2896 35.3219C72.2623 36.5093 75.7468 37.2528 78.2769 40.8482C78.399 46.2081 62.619 35.4107 60.5438 35.8324V35.8435Z" fill="black"/>
<path d="M92.6804 23.7045C93.4683 24.8253 92.4141 28.3542 90.117 27.9658C86.6436 25.9572 82.5599 23.9487 80.5181 20.3421C82.338 19.6874 92.3142 23.1941 92.6804 23.7156V23.7045Z" fill="black"/>
<path d="M110.38 15.9922L110.469 19.2104C108.349 20.7196 99.7602 15.3264 101.602 13.6729L110.38 15.9922Z" fill="black"/>
<path d="M145.879 130.079L140.441 130.811C134.804 119.559 124.628 122.333 124.895 134.629L121.51 134.129C116.661 130.612 127.68 108.207 141.03 120.147C142.894 121.812 147.499 127.749 145.868 130.079H145.879Z" fill="black"/>
<path d="M153.158 174.434L158.595 173.702C164.233 184.954 174.409 182.18 174.142 169.884L177.527 170.384C182.376 173.901 171.357 196.306 158.007 184.366C156.143 182.701 151.538 176.764 153.169 174.434H153.158Z" fill="black"/>
<path d="M154.256 145.361C162.789 150.088 170.28 150.898 172.81 147.824C173.332 147.192 173.864 141.355 173.809 139.457" stroke="#1D1D1B" stroke-width="4" stroke-miterlimit="10"/>
</g>
<defs>
<filter id="filter0_d_5183_59098" x="0" y="0" width="231" height="231.783" filterUnits="userSpaceOnUse" color-interpolation-filters="sRGB">
<feFlood flood-opacity="0" result="BackgroundImageFix"/>
<feColorMatrix in="SourceAlpha" type="matrix" values="0 0 0 0 0 0 0 0 0 0 0 0 0 0 0 0 0 0 127 0" result="hardAlpha"/>
<feOffset dx="3" dy="4"/>
<feGaussianBlur stdDeviation="2"/>
<feComposite in2="hardAlpha" operator="out"/>
<feColorMatrix type="matrix" values="0 0 0 0 0 0 0 0 0 0 0 0 0 0 0 0 0 0 0.25 0"/>
<feBlend mode="normal" in2="BackgroundImageFix" result="effect1_dropShadow_5183_59098"/>
<feBlend mode="normal" in="SourceGraphic" in2="effect1_dropShadow_5183_59098" result="shape"/>
</filter>
</defs>
</svg>
