<svg width="358" height="52" viewBox="0 0 358 52" fill="none" xmlns="http://www.w3.org/2000/svg">
<path d="M50.6978 25.7001H50.0065C49.8818 25.7001 49.8393 25.7456 49.8393 25.7987C49.8294 26.9619 50.054 28.1529 49.7745 29.3086C49.495 30.4642 48.5841 31.1495 48.3994 32.2116C47.4437 37.6459 48.0501 40.5717 44.5514 45.5078C40.1842 51.6704 31.5049 53.0992 26.0672 47.4626C25.4283 46.8 25.6829 46.226 26.6436 46.5497C27.4497 46.8202 28.9395 48.2819 30.1997 48.7649C40.2641 52.6288 47.0668 41.9043 46.8447 32.9222C46.8447 32.8564 46.7749 32.8134 46.715 32.8362C42.1207 34.6696 38.0082 31.6325 39.3308 26.5674C39.3457 26.5118 39.3083 26.4561 39.2534 26.446C37.7386 26.2184 36.431 26.1451 34.9636 26.7217C34.9262 26.7368 34.9013 26.7773 34.9013 26.8178C34.9761 29.2454 34.9262 30.8891 33.1269 32.6643C29.2963 36.4422 21.6726 33.9691 23.1125 28.0796C23.125 28.0265 23.0925 27.9709 23.0376 27.9633L17.5201 26.9897C17.4577 26.9796 17.4053 27.0302 17.4128 27.0934C17.545 28.5297 16.976 29.4679 15.7982 30.1987C15.7632 30.2189 15.7183 30.2164 15.6859 30.1911C11.1765 26.4916 7.70025 32.1484 10.1983 36.4144C11.6332 38.8648 13.7768 37.2969 14.4032 37.699C14.6328 37.8457 16.6167 41.439 17.3928 42.2735C18.2712 43.2193 21.4605 45.0021 21.5877 45.2271C21.7499 45.5154 21.6152 46.0161 21.6352 46.3802C21.6352 46.4232 21.6127 46.4662 21.5703 46.4763C20.9389 46.6255 17.5425 44.0867 17.0309 43.6492C16.6192 43.2977 15.631 41.9549 15.4862 41.9119C15.0495 41.7804 14.1636 42.3823 13.5223 42.405C12.0824 42.4581 8.32413 40.903 7.31345 39.8409C5.92096 38.3742 6.10313 36.5408 5.53665 34.8137C5.19726 33.7845 4.45111 32.8236 4.10174 31.716C3.58267 30.0723 3.74238 28.201 3.37305 26.8911C3.0137 25.6166 0.463292 24.112 0.0415521 21.1635C-0.442576 17.7977 3.41797 10.219 5.6764 7.62954C10.3979 2.21547 27.0878 -0.991 33.8806 0.275908C36.139 0.698211 42.7721 3.581 43.9624 5.48515C44.6662 6.61298 44.0747 6.82287 44.1721 7.59161C44.2195 7.96081 44.5638 8.31736 44.6138 8.88633C44.6861 9.7183 44.2644 10.5098 44.3467 11.142C44.4341 11.8121 46.2184 14.5862 46.6052 15.7039C47.3613 17.8912 47.3987 20.7361 48.1674 22.7186C48.2697 22.9816 49.4725 25.0122 49.5873 25.0856C49.9117 25.2853 50.3609 25.0704 50.7402 25.1033C51.1195 25.1361 51.0646 25.7 50.6978 25.7026V25.7001ZM4.91527 19.1455H4.92026V27.852C4.92026 29.7233 6.91667 32.5353 7.53555 34.3054C7.93733 35.4535 7.86745 36.7735 8.55122 37.828C9.52946 39.3326 12.302 40.1823 14.0363 40.1216C14.0962 40.1216 14.1387 40.0609 14.1237 40.0002L13.929 39.2137C13.9141 39.1556 13.8517 39.1278 13.7993 39.153C12.4392 39.7675 10.7897 38.8117 9.78151 37.8482C7.2336 35.4105 7.16372 30.4314 10.1783 28.3755C11.1066 27.7433 12.3918 27.8975 12.1747 26.5472C12.1672 26.5017 12.1248 26.4663 12.0799 26.4663L9.62179 26.4941C9.58935 26.4941 9.55941 26.5118 9.54443 26.5371L8.79329 27.7205C7.40579 25.6596 10.6474 25.6191 12.0599 25.6722C12.1048 25.6722 12.1423 25.6419 12.1497 25.5964C13.0656 20.0508 15.314 11.893 19.8159 8.29713C23.8487 5.07296 32.4681 3.49502 37.4866 3.96031C38.5721 4.06146 39.6252 4.55963 40.7133 4.59756C40.8156 4.60009 40.848 4.45848 40.7557 4.41549C37.9083 3.01455 34.9586 1.67178 31.7469 1.43155C26.4465 1.03706 12.8734 3.84652 8.58366 7.03528C4.86786 9.79922 0.158841 18.7687 2.41727 23.3104C2.49463 23.4672 3.32813 24.9996 3.65005 24.7189C3.66502 24.7037 3.67501 24.6835 3.6775 24.6633C3.71493 24.38 3.98445 22.3191 4.03186 21.96C4.03685 21.9221 4.04434 21.8892 4.05682 21.8538L4.91777 19.1506L4.91527 19.1455ZM46.3307 21.4922C45.9488 17.9393 44.8209 14.4268 42.8769 11.4454C42.8619 11.4227 42.8419 11.4075 42.817 11.4024C40.7457 10.9447 38.5996 10.9726 36.4809 11.0231C33.6585 11.0939 28.4753 11.3316 25.8975 12.1838C21.8248 13.5291 22.5685 15.3954 20.602 18.1972C19.7211 19.4515 18.4384 19.9395 17.7646 21.391C17.3204 22.3444 16.3072 25.9782 17.5675 26.4182C19.1721 26.9771 21.4754 26.8152 23.1749 26.9366C23.2048 26.9366 23.2323 26.9265 23.2522 26.9037C25.1289 24.6582 27.1652 20.9359 30.5042 21.1432C31.7619 21.2216 32.2011 21.955 31.4575 22.9513C31.42 22.9993 31.4375 23.0727 31.4924 23.098C33.0845 23.8515 33.9579 24.7568 34.7116 26.3676C34.7341 26.4182 34.7939 26.4384 34.8414 26.4106C36.3162 25.6065 37.831 25.0148 39.4256 25.8518C39.468 25.8745 39.5179 25.8619 39.5454 25.824C39.785 25.475 40.873 23.8793 41.2398 23.3458C41.2872 23.2775 41.2323 23.189 41.15 23.1966C38.2103 23.4874 37.4042 19.9269 40.9129 20.9637C41.5593 21.1559 43.3061 22.3115 43.4833 22.3242C43.8377 22.3469 45.2925 21.2671 46.2134 21.5908C46.2783 21.6136 46.3431 21.5579 46.3357 21.4897L46.3307 21.4922ZM39.9571 29.0051C39.9197 29.0228 39.8948 29.0633 39.8997 29.1038C40.1743 31.7918 42.7995 32.8337 45.2301 32.5353C47.7032 32.2318 47.1716 30.4263 47.1043 28.3477C47.0668 27.1996 46.9346 25.4927 46.8123 24.3446C46.7749 23.9931 46.5927 22.7996 46.3931 22.5543C46.3756 22.534 46.3481 22.5265 46.3232 22.5265C46.0512 22.5416 44.489 22.6327 43.9999 22.6605C43.93 22.6655 43.8901 22.7389 43.9225 22.8021C44.4815 23.8515 45.1528 24.9971 44.3193 26.0895C44.2769 26.1451 44.1895 26.135 44.1596 26.0718C43.7229 25.1741 43.3161 24.1019 42.3054 23.7099C42.2805 23.6998 42.2505 23.6998 42.2281 23.7124C41.5867 24.0639 39.9671 26.4056 40.0669 27.101C40.0769 27.1642 40.1518 27.192 40.2067 27.1617C41.1325 26.6306 41.981 26.312 42.9867 26.9568C45.2925 28.4387 43.2462 30.7778 42.3379 28.0619C42.3279 28.0316 42.3029 28.0063 42.273 27.9962C41.1874 27.6523 40.8156 28.6081 39.9596 29.0001L39.9571 29.0051ZM24.7246 26.006C24.6797 25.9782 24.6173 25.9959 24.5923 26.044C19.761 35.0413 35.0185 36.4675 34.1177 27.5966C33.6485 22.9816 27.5595 22.2635 25.5506 26.3676C25.5256 26.4157 25.4682 26.4359 25.4208 26.4081L24.7246 26.0035V26.006ZM48.7463 29.2959C48.7663 29.3996 48.9135 29.3971 48.9335 29.2934C49.198 27.8925 49.2005 26.527 48.7663 25.1437C48.6839 24.8782 48.7039 24.3775 48.3445 24.4382V27.3336C48.3445 27.3336 48.3445 27.3463 48.3445 27.3539L48.7438 29.2985L48.7463 29.2959Z" fill="black"/>
<path d="M16.8982 35.0552C16.6886 35.2373 14.4826 33.543 13.9985 33.3179C12.9603 32.8375 11.8149 32.8299 10.9165 32.1471C11.8598 31.08 13.3846 31.5731 14.4626 32.089C15.1464 32.4152 17.6893 34.3649 16.8982 35.0527V35.0552Z" fill="black"/>
<path d="M4.92255 19.1285L4.04164 21.9025L3.6748 24.6917C3.37285 25.0761 2.49942 23.4704 2.41956 23.3085C0.161132 18.7669 4.87015 9.79736 8.58595 7.03342C12.8757 3.84466 26.4463 1.03521 31.7492 1.42969C35.0957 1.68004 38.1552 3.12649 41.1124 4.58811C39.8821 4.68674 38.7042 4.07225 37.4864 3.96098C32.4679 3.49822 23.8485 5.07616 19.8157 8.2978C15.2939 11.9114 13.0429 20.1299 12.1371 25.6754C10.772 25.6173 7.38063 25.6198 8.79308 27.7212L9.57417 26.4922L12.1645 26.4619C12.449 27.9033 11.1289 27.7288 10.1831 28.3736C7.16851 30.4295 7.23838 35.4086 9.78629 37.8464C10.8219 38.8351 12.5289 39.8137 13.9089 39.1031L14.1584 40.1146C12.4315 40.2209 9.5567 39.3636 8.55601 37.8287C7.86974 36.7767 7.93962 35.4567 7.54034 34.3061C6.92145 32.536 4.92505 29.724 4.92505 27.8527V19.1285H4.92255ZM24.6146 3.72834L22.6406 3.19983C22.2264 3.57661 24.1579 4.80559 24.6345 4.46168L24.6146 3.72834ZM20.6343 5.48582C20.5519 5.36697 18.3084 4.57041 17.8992 4.71708C18.3559 5.54146 19.2767 5.99663 20.0578 6.45434C20.5769 6.54284 20.8139 5.7387 20.6343 5.4833V5.48582ZM13.4073 8.24976C13.8714 8.15113 17.4225 10.6116 17.3951 9.39276C16.8261 8.57091 16.0425 8.40148 15.1491 8.13343C14.7024 7.99941 13.1577 7.30653 13.4073 8.25229V8.24976ZM14.3331 12.8749C13.8065 12.3236 11.0266 11.6155 10.1631 11.2919C10.1531 11.9215 10.9941 12.3211 11.4383 12.6523C11.8226 12.9381 14.403 14.7942 14.65 13.679C14.685 13.5197 14.4679 13.0165 14.3331 12.8749ZM7.81235 15.6034C7.14355 15.7855 7.6152 16.1825 7.93463 16.4531C8.3963 16.845 10.5948 18.5418 11.044 17.8742C11.9125 16.582 8.77062 15.3455 7.81235 15.6059V15.6034Z" fill="white"/>
<path d="M7.81236 15.6014C8.77064 15.3409 11.91 16.5775 11.044 17.8697C10.5949 18.5398 8.39881 16.8405 7.93464 16.4485C7.61522 16.178 7.14357 15.7809 7.81236 15.5989V15.6014Z" fill="black"/>
<path d="M14.3331 12.874C14.4679 13.0156 14.685 13.5189 14.6501 13.6782C14.403 14.7933 11.8202 12.9372 11.4383 12.6515C10.9941 12.3202 10.1556 11.9181 10.1631 11.291C11.0266 11.6172 13.8066 12.3227 14.3331 12.874Z" fill="black"/>
<path d="M13.4075 8.24895C13.1579 7.30319 14.7026 7.99607 15.1493 8.1301C16.0427 8.40067 16.8263 8.5701 17.3953 9.38942C17.4227 10.6108 13.8741 8.15033 13.4075 8.24642V8.24895Z" fill="black"/>
<path d="M20.6345 5.48588C20.8117 5.74128 20.5746 6.54543 20.058 6.45692C19.2769 5.99922 18.3586 5.54151 17.8994 4.71966C18.3087 4.57047 20.5521 5.36955 20.6345 5.48841V5.48588Z" fill="black"/>
<path d="M24.6148 3.72578L24.6347 4.45912C24.1581 4.80303 22.2266 3.57405 22.6408 3.19727L24.6148 3.72578Z" fill="black"/>
<path d="M32.5981 29.7224L31.3753 29.8893C30.1076 27.3252 27.8192 27.9574 27.8791 30.7592L27.118 30.6454C26.0275 29.8438 28.5055 24.7383 31.5076 27.4592C31.9268 27.8385 32.9625 29.1914 32.5956 29.7224H32.5981Z" fill="black"/>
<path d="M39.8999 41.8474L38.6771 42.0143C37.4094 39.4502 35.121 40.0824 35.1809 42.8842L34.4197 42.7704C33.3292 41.9688 35.8073 36.8633 38.8093 39.5842C39.2286 39.9635 40.2642 41.3164 39.8974 41.8474H39.8999Z" fill="black"/>
<path d="M127.356 25.7H126.665C126.54 25.7 126.498 25.7456 126.498 25.7987C126.488 26.9619 126.712 28.1529 126.433 29.3086C126.153 30.4642 125.242 31.1495 125.058 32.2116C124.102 37.6459 124.708 40.5717 121.21 45.5078C116.842 51.6704 108.163 53.0992 102.725 47.4626C102.087 46.8 102.341 46.226 103.302 46.5497C104.108 46.8202 105.598 48.2819 106.858 48.7649C116.922 52.6288 123.725 41.9043 123.503 32.9222C123.503 32.8564 123.433 32.8134 123.373 32.8362C118.779 34.6696 114.666 31.6325 115.989 26.5674C116.004 26.5118 115.967 26.4562 115.912 26.446C114.397 26.2184 113.089 26.1451 111.622 26.7217C111.584 26.7368 111.559 26.7773 111.559 26.8178C111.634 29.2454 111.584 30.8891 109.785 32.6643C105.955 36.4422 98.3308 33.9691 99.7707 28.0796C99.7832 28.0265 99.7507 27.9709 99.6958 27.9633L94.1783 26.9897C94.1159 26.9796 94.0635 27.0302 94.071 27.0934C94.2032 28.5297 93.6342 29.4679 92.4564 30.1987C92.4214 30.2189 92.3765 30.2164 92.3441 30.1911C87.8347 26.4916 84.3585 32.1484 86.8565 36.4144C88.2914 38.8648 90.435 37.2969 91.0614 37.699C91.291 37.8457 93.2749 41.439 94.051 42.2735C94.9294 43.2193 98.1187 45.0021 98.2459 45.2271C98.4081 45.5154 98.2734 46.0161 98.2934 46.3802C98.2934 46.4232 98.2709 46.4662 98.2285 46.4763C97.5971 46.6255 94.2007 44.0867 93.6891 43.6492C93.2774 43.2977 92.2892 41.9549 92.1444 41.9119C91.7077 41.7804 90.8218 42.3823 90.1805 42.405C88.7406 42.4581 84.9823 40.903 83.9717 39.8409C82.5792 38.3742 82.7613 36.5408 82.1949 34.8137C81.8555 33.7845 81.1093 32.8236 80.7599 31.716C80.2409 30.0723 80.4006 28.201 80.0313 26.8911C79.6719 25.6166 77.1215 24.112 76.6998 21.1635C76.2156 17.7977 80.0762 10.219 82.3346 7.62954C87.0561 2.21547 103.746 -0.991 110.539 0.275908C112.797 0.698211 119.43 3.581 120.621 5.48515C121.324 6.61298 120.733 6.82287 120.83 7.59161C120.878 7.96081 121.222 8.31736 121.272 8.88633C121.344 9.7183 120.923 10.5098 121.005 11.142C121.092 11.8121 122.877 14.5862 123.263 15.7039C124.02 17.8912 124.057 20.7361 124.826 22.7186C124.928 22.9816 126.131 25.0122 126.245 25.0856C126.57 25.2853 127.019 25.0704 127.398 25.1033C127.778 25.1361 127.723 25.7001 127.356 25.7026V25.7ZM81.5735 19.1455H81.5785V27.852C81.5785 29.7233 83.5749 32.5353 84.1938 34.3054C84.5955 35.4535 84.5257 36.7735 85.2094 37.828C86.1877 39.3326 88.9602 40.1823 90.6945 40.1216C90.7544 40.1216 90.7969 40.0609 90.7819 40.0002L90.5872 39.2137C90.5723 39.1556 90.5099 39.1278 90.4575 39.153C89.0974 39.7675 87.4479 38.8117 86.4397 37.8482C83.8918 35.4105 83.8219 30.4314 86.8365 28.3755C87.7648 27.7433 89.05 27.8975 88.8329 26.5472C88.8254 26.5017 88.783 26.4663 88.7381 26.4663L86.28 26.4941C86.2476 26.4941 86.2176 26.5118 86.2026 26.5371L85.4515 27.7205C84.064 25.6596 87.3056 25.6191 88.7181 25.6722C88.763 25.6722 88.8005 25.6419 88.8079 25.5964C89.7238 20.0508 91.9722 11.893 96.4741 8.29713C100.507 5.07296 109.126 3.49502 114.145 3.96031C115.23 4.06146 116.283 4.55963 117.371 4.59756C117.474 4.60009 117.506 4.45848 117.414 4.41549C114.567 3.01455 111.617 1.67178 108.405 1.43155C103.105 1.03706 89.5316 3.84652 85.2419 7.03528C81.5261 9.79922 76.817 18.7687 79.0755 23.3104C79.1528 23.4672 79.9863 24.9996 80.3083 24.7189C80.3232 24.7037 80.3332 24.6835 80.3357 24.6633C80.3731 24.38 80.6427 22.3191 80.6901 21.96C80.6951 21.9221 80.7025 21.8892 80.715 21.8538L81.576 19.1506L81.5735 19.1455ZM122.989 21.4922C122.607 17.9393 121.479 14.4268 119.535 11.4454C119.52 11.4227 119.5 11.4075 119.475 11.4024C117.404 10.9447 115.258 10.9726 113.139 11.0231C110.317 11.0939 105.134 11.3316 102.556 12.1838C98.483 13.5291 99.2267 15.3954 97.2602 18.1972C96.3793 19.4515 95.0966 19.9395 94.4228 21.391C93.9786 22.3444 92.9655 25.9782 94.2257 26.4182C95.8303 26.9771 98.1336 26.8152 99.8331 26.9366C99.863 26.9366 99.8905 26.9265 99.9104 26.9037C101.787 24.6582 103.823 20.9359 107.162 21.1432C108.42 21.2216 108.859 21.955 108.116 22.9513C108.078 22.9993 108.096 23.0727 108.151 23.098C109.743 23.8515 110.616 24.7568 111.37 26.3676C111.392 26.4182 111.452 26.4384 111.5 26.4106C112.974 25.6065 114.489 25.0148 116.084 25.8518C116.126 25.8745 116.176 25.8619 116.204 25.824C116.443 25.475 117.531 23.8793 117.898 23.3458C117.945 23.2775 117.891 23.189 117.808 23.1966C114.868 23.4874 114.062 19.9269 117.571 20.9637C118.217 21.1559 119.964 22.3115 120.141 22.3242C120.496 22.3469 121.951 21.2671 122.872 21.5908C122.936 21.6136 123.001 21.5579 122.994 21.4897L122.989 21.4922ZM116.558 29.1038C116.832 31.7918 119.458 32.8337 121.888 32.5353C124.361 32.2318 123.83 30.4263 123.762 28.3477C123.725 27.1996 123.593 25.4927 123.47 24.3446C123.433 23.9931 123.251 22.7996 123.051 22.5543C123.034 22.534 123.006 22.5265 122.981 22.5265C122.709 22.5416 121.147 22.6327 120.658 22.6605C120.588 22.6655 120.548 22.7389 120.581 22.8021C121.14 23.8515 121.811 24.9971 120.977 26.0895C120.935 26.1451 120.848 26.135 120.818 26.0718C120.381 25.1741 119.974 24.1019 118.964 23.7099C118.939 23.6998 118.909 23.6998 118.886 23.7124C118.245 24.0639 116.925 26.3424 116.725 27.101C116.71 27.1617 116.553 29.0582 116.558 29.1012V29.1038ZM101.38 26.006C101.335 25.9782 101.273 25.9959 101.248 26.044C96.4167 35.0413 111.674 36.4675 110.773 27.5966C110.304 22.9816 104.215 22.2635 102.206 26.3676C102.181 26.4157 102.124 26.4359 102.077 26.4081L101.38 26.0035V26.006ZM125.405 29.2959C125.424 29.3996 125.572 29.3971 125.592 29.2934C125.856 27.8925 125.859 26.527 125.424 25.1437C125.342 24.8782 125.362 24.3775 125.003 24.4382V27.3336C125.003 27.3336 125.003 27.3463 125.003 27.3539L125.402 29.2985L125.405 29.2959Z" fill="black"/>
<path d="M93.5545 35.0572C93.3449 35.2392 91.1388 33.545 90.6547 33.3199C89.6166 32.8394 88.4711 32.8318 87.5728 32.1491C88.5161 31.0819 90.0408 31.5751 91.1189 32.0909C91.8026 32.4171 94.3456 34.3668 93.5545 35.0546V35.0572Z" fill="black"/>
<path d="M81.5783 19.1285L80.6974 21.9025L80.3306 24.6917C80.0286 25.0761 79.1552 23.4704 79.0753 23.3085C76.8169 18.7669 81.5259 9.79736 85.2417 7.03342C89.5315 3.84466 103.102 1.03521 108.405 1.42969C111.751 1.68004 114.811 3.12649 117.768 4.58811C116.538 4.68674 115.36 4.07225 114.142 3.96098C109.124 3.49822 100.504 5.07616 96.4715 8.2978C91.9496 11.9114 89.6987 20.1299 88.7928 25.6754C87.4278 25.6173 84.0364 25.6198 85.4488 27.7212L86.2299 26.4922L88.8203 26.4619C89.1048 27.9033 87.7846 27.7288 86.8388 28.3736C83.8243 30.4295 83.8941 35.4086 86.4421 37.8464C87.4777 38.8351 89.1846 39.8137 90.5646 39.1031L90.8142 40.1146C89.0873 40.2209 86.2125 39.3636 85.2118 37.8287C84.5255 36.7767 84.5954 35.4567 84.1961 34.3061C83.5772 32.536 81.5808 29.724 81.5808 27.8527V19.1285H81.5783ZM101.27 3.72834L99.2964 3.19983C98.8821 3.57661 100.814 4.80559 101.29 4.46168L101.27 3.72834ZM97.29 5.48582C97.2077 5.36697 94.9642 4.57041 94.5549 4.71708C95.0116 5.54146 95.9325 5.99663 96.7135 6.45434C97.2326 6.54284 97.4697 5.7387 97.29 5.48329V5.48582ZM90.063 8.24976C90.5272 8.15113 94.0783 10.6116 94.0508 9.39276C93.4819 8.57091 92.6983 8.40148 91.8049 8.13343C91.3582 7.99941 89.8135 7.30653 90.063 8.25229V8.24976ZM90.9914 12.8749C90.4648 12.3236 87.6848 11.6155 86.8214 11.2919C86.8114 11.9215 87.6524 12.3211 88.0966 12.6523C88.4809 12.9381 91.0612 14.7942 91.3083 13.679C91.3432 13.5197 91.1261 13.0165 90.9914 12.8749ZM84.4706 15.6034C83.8018 15.7855 84.2735 16.1825 84.5929 16.4531C85.0546 16.845 87.2531 18.5418 87.7023 17.8742C88.5707 16.582 85.4289 15.3455 84.4706 15.6059V15.6034Z" fill="white"/>
<path d="M84.4706 15.6014C85.4288 15.3409 88.5682 16.5775 87.7022 17.8697C87.2531 18.5398 85.057 16.8405 84.5928 16.4485C84.2734 16.178 83.8018 15.7809 84.4706 15.5989V15.6014Z" fill="black"/>
<path d="M90.9911 12.876C91.1258 13.0176 91.3429 13.5208 91.308 13.6801C91.061 14.7953 88.4781 12.9392 88.0963 12.6534C87.6521 12.3222 86.8136 11.9201 86.8211 11.293C87.6845 11.6192 90.4645 12.3247 90.9911 12.876Z" fill="black"/>
<path d="M90.0635 8.24699C89.8139 7.30124 91.3586 7.99412 91.8053 8.12814C92.6987 8.39872 93.4823 8.56815 94.0513 9.38746C94.0787 10.6089 90.5301 8.14837 90.0635 8.24446V8.24699Z" fill="black"/>
<path d="M97.2902 5.48392C97.4674 5.73933 97.2304 6.54347 96.7138 6.45497C95.9327 5.99726 95.0143 5.53956 94.5552 4.71771C94.9644 4.56851 97.2079 5.3676 97.2902 5.48645V5.48392Z" fill="black"/>
<path d="M101.27 3.72968L101.29 4.46302C100.814 4.80693 98.8821 3.57796 99.2963 3.20117L101.27 3.72968Z" fill="black"/>
<path d="M116.555 41.8474L115.333 42.0143C114.065 39.4502 111.777 40.0824 111.836 42.8842L111.075 42.7704C109.985 41.9688 112.463 36.8633 115.465 39.5842C115.884 39.9635 116.92 41.3164 116.553 41.8474H116.555Z" fill="black"/>
<path d="M106.002 32.6324C107.303 32.6324 108.358 31.1731 108.358 29.3729C108.358 27.5726 107.303 26.1133 106.002 26.1133C104.701 26.1133 103.646 27.5726 103.646 29.3729C103.646 31.1731 104.701 32.6324 106.002 32.6324Z" fill="black"/>
<path d="M120.483 32.1109C121.784 32.1109 122.839 30.6516 122.839 28.8514C122.839 27.0512 121.784 25.5918 120.483 25.5918C119.182 25.5918 118.127 27.0512 118.127 28.8514C118.127 30.6516 119.182 32.1109 120.483 32.1109Z" fill="black"/>
<path d="M204.379 25.7001H203.683C203.557 25.7001 203.515 25.7456 203.515 25.7987C203.505 26.9619 203.731 28.153 203.449 29.3086C203.168 30.4642 202.25 31.1495 202.064 32.2116C201.102 37.6459 201.712 40.5717 198.189 45.5078C193.79 51.6704 185.048 53.0992 179.571 47.4626C178.928 46.8 179.184 46.226 180.152 46.5497C180.964 46.8202 182.464 48.2819 183.734 48.7649C193.87 52.6288 200.722 41.9043 200.498 32.9222C200.498 32.8564 200.428 32.8134 200.368 32.8362C195.74 34.6696 191.598 31.6325 192.93 26.5674C192.945 26.5118 192.908 26.4562 192.852 26.446C191.327 26.2184 190.01 26.1451 188.532 26.7217C188.494 26.7368 188.469 26.7773 188.469 26.8178C188.544 29.2454 188.494 30.8891 186.682 32.6643C182.824 36.4422 175.145 33.9691 176.595 28.0796C176.608 28.0265 176.575 27.9709 176.52 27.9633L170.962 26.9897C170.9 26.9796 170.847 27.0302 170.854 27.0934C170.988 28.5297 170.415 29.4679 169.228 30.1987C169.193 30.2189 169.148 30.2164 169.115 30.1911C164.573 26.4916 161.072 32.1484 163.588 36.4144C165.033 38.8648 167.192 37.2969 167.823 37.699C168.054 37.8457 170.053 41.4391 170.834 42.2735C171.719 43.2193 174.931 45.0021 175.059 45.2271C175.223 45.5154 175.087 46.0161 175.107 46.3802C175.107 46.4232 175.085 46.4662 175.042 46.4763C174.406 46.6255 170.985 44.0867 170.47 43.6492C170.055 43.2977 169.06 41.9549 168.914 41.9119C168.474 41.7804 167.582 42.3823 166.936 42.405C165.486 42.4581 161.7 40.903 160.682 39.8409C159.28 38.3742 159.463 36.5408 158.893 34.8137C158.551 33.7845 157.799 32.8236 157.447 31.716C156.925 30.0723 157.086 28.201 156.714 26.8911C156.352 25.6166 153.783 24.112 153.358 21.1635C152.87 17.7977 156.759 10.219 159.033 7.62954C163.789 2.21547 180.599 -0.991 187.441 0.275908C189.716 0.698211 196.396 3.581 197.595 5.48515C198.304 6.61298 197.708 6.82287 197.807 7.59161C197.854 7.96081 198.201 8.31736 198.251 8.88633C198.324 9.7183 197.9 10.5098 197.982 11.142C198.07 11.8121 199.868 14.5862 200.257 15.7039C201.019 17.8912 201.056 20.7361 201.831 22.7186C201.934 22.9816 203.145 25.0122 203.261 25.0856C203.588 25.2853 204.04 25.0704 204.422 25.1033C204.804 25.1361 204.749 25.7001 204.379 25.7026V25.7001ZM158.267 19.143H158.272V27.8495C158.272 29.7208 160.283 32.5328 160.906 34.3029C161.311 35.4509 161.24 36.771 161.929 37.8255C162.914 39.3301 165.707 40.1797 167.454 40.119C167.514 40.119 167.557 40.0583 167.542 39.9977L167.346 39.2112C167.33 39.1531 167.268 39.1252 167.215 39.1505C165.845 39.765 164.184 38.8091 163.168 37.8457C160.602 35.408 160.532 30.4288 163.568 28.373C164.503 27.7408 165.797 27.895 165.579 26.5447C165.571 26.4991 165.528 26.4637 165.483 26.4637L163.007 26.4916C162.975 26.4916 162.944 26.5093 162.929 26.5345L162.173 27.718C160.775 25.6571 164.04 25.6166 165.463 25.6697C165.508 25.6697 165.546 25.6394 165.553 25.5938C166.476 20.0483 168.741 11.8905 173.275 8.29461C177.337 5.07044 186.018 3.49249 191.073 3.95778C192.166 4.05893 193.227 4.5571 194.323 4.59503C194.426 4.59756 194.459 4.45595 194.366 4.41296C191.498 3.01203 188.527 1.66926 185.292 1.42902C179.953 1.03454 166.282 3.84399 161.962 7.03275C158.219 9.79669 153.476 18.7662 155.751 23.3078C155.829 23.4646 156.668 24.9971 156.993 24.7164C157.008 24.7012 157.018 24.681 157.02 24.6607C157.058 24.3775 157.329 22.3166 157.377 21.9575C157.382 21.9196 157.39 21.8867 157.402 21.8513L158.269 19.148L158.267 19.143ZM199.981 21.4922C199.596 17.9393 198.46 14.4268 196.502 11.4454C196.487 11.4227 196.467 11.4075 196.442 11.4025C194.355 10.9447 192.194 10.9726 190.06 11.0231C187.217 11.0939 181.997 11.3316 179.4 12.1838C175.298 13.5291 176.047 15.3954 174.067 18.1972C173.179 19.4515 171.887 19.9395 171.209 21.391C170.761 22.3444 169.741 25.9782 171.01 26.4182C172.626 26.9771 174.946 26.8152 176.658 26.9366C176.688 26.9366 176.716 26.9265 176.736 26.9037C178.626 24.6582 180.677 20.9359 184.04 21.1432C185.307 21.2216 185.749 21.955 185 22.9513C184.963 22.9993 184.98 23.0727 185.035 23.098C186.639 23.8515 187.519 24.7568 188.278 26.3676C188.301 26.4182 188.361 26.4384 188.409 26.4106C189.894 25.6065 191.42 25.0148 193.026 25.8518C193.069 25.8745 193.119 25.8619 193.147 25.824C193.388 25.475 194.484 23.8793 194.853 23.3458C194.901 23.2775 194.846 23.189 194.763 23.1966C191.802 23.4874 190.99 19.9269 194.524 20.9637C195.175 21.1559 196.934 22.3115 197.113 22.3242C197.47 22.3469 198.935 21.2671 199.863 21.5908C199.928 21.6136 199.993 21.5579 199.986 21.4897L199.981 21.4922ZM193.503 29.1038C193.78 31.7918 196.424 32.8337 198.872 32.5353C201.363 32.2318 200.828 30.4263 200.76 28.3477C200.722 27.1996 200.589 25.4927 200.466 24.3446C200.428 23.9931 200.245 22.7996 200.044 22.5543C200.026 22.534 199.998 22.5265 199.973 22.5265C199.699 22.5416 198.126 22.6327 197.633 22.6605C197.563 22.6655 197.522 22.7389 197.555 22.8021C198.118 23.8515 198.794 24.9971 197.955 26.0895C197.912 26.1451 197.824 26.135 197.794 26.0718C197.354 25.1741 196.944 24.1019 195.926 23.7099C195.901 23.6998 195.871 23.6998 195.849 23.7124C195.203 24.0639 193.873 26.3424 193.672 27.101C193.657 27.1617 193.498 29.0582 193.503 29.1012V29.1038ZM178.219 26.006C178.174 25.9782 178.111 25.9959 178.086 26.044C173.22 35.0413 188.587 36.4675 187.68 27.5966C187.207 22.9816 181.074 22.2635 179.051 26.3676C179.026 26.4157 178.968 26.4359 178.92 26.4081L178.219 26.0035V26.006ZM202.414 29.2959C202.434 29.3996 202.582 29.3971 202.602 29.2934C202.869 27.8925 202.871 26.527 202.434 25.1437C202.351 24.8782 202.371 24.3775 202.009 24.4382V27.3336C202.009 27.3336 202.009 27.3463 202.009 27.3539L202.411 29.2985L202.414 29.2959Z" fill="black"/>
<path d="M170.337 35.0572C170.125 35.2392 167.904 33.545 167.416 33.3199C166.37 32.8394 165.217 32.8318 164.312 32.1491C165.262 31.0819 166.798 31.5751 167.883 32.0909C168.572 32.4171 171.133 34.3668 170.337 35.0546V35.0572Z" fill="black"/>
<path d="M158.272 19.1285L157.385 21.9025L157.015 24.6917C156.711 25.0761 155.831 23.4704 155.751 23.3085C153.476 18.7669 158.219 9.79736 161.962 7.03342C166.282 3.84466 179.951 1.03521 185.292 1.42969C188.663 1.68004 191.744 3.12649 194.723 4.58811C193.483 4.68673 192.297 4.07225 191.07 3.96098C186.016 3.49822 177.334 5.07616 173.272 8.2978C168.718 11.9114 166.451 20.1299 165.538 25.6754C164.164 25.6173 160.748 25.6198 162.17 27.7212L162.957 26.4922L165.566 26.4619C165.853 27.9033 164.523 27.7288 163.57 28.3736C160.534 30.4295 160.604 35.4086 163.171 37.8464C164.214 38.8351 165.933 39.8137 167.323 39.1031L167.574 40.1146C165.835 40.2209 162.94 39.3636 161.932 37.8287C161.24 36.7767 161.311 35.4567 160.909 34.3061C160.285 32.536 158.274 29.724 158.274 27.8527V19.1285H158.272ZM178.108 3.72581L176.12 3.1973C175.703 3.57408 177.648 4.80306 178.129 4.45915L178.108 3.72581ZM174.097 5.48582C174.014 5.36697 171.754 4.57041 171.342 4.71708C171.802 5.54146 172.73 5.99663 173.516 6.45434C174.039 6.54285 174.278 5.7387 174.097 5.48329V5.48582ZM166.82 8.24976C167.288 8.15114 170.865 10.6116 170.837 9.39276C170.264 8.57091 169.475 8.40148 168.575 8.13343C168.125 7.99941 166.569 7.30653 166.82 8.25229V8.24976ZM167.753 12.8749C167.223 12.3236 164.422 11.6155 163.553 11.2919C163.543 11.9215 164.39 12.3211 164.837 12.6523C165.224 12.9381 167.823 14.7942 168.072 13.679C168.107 13.5197 167.889 13.0165 167.753 12.8749ZM161.185 15.6034C160.511 15.7855 160.987 16.1825 161.308 16.453C161.773 16.845 163.988 18.5418 164.44 17.8742C165.315 16.582 162.15 15.3455 161.185 15.6059V15.6034Z" fill="white"/>
<path d="M161.185 15.6014C162.15 15.3409 165.312 16.5775 164.44 17.8697C163.987 18.5398 161.776 16.8405 161.308 16.4485C160.986 16.178 160.511 15.7809 161.185 15.5989V15.6014Z" fill="black"/>
<path d="M167.753 12.874C167.888 13.0156 168.107 13.5189 168.072 13.6782C167.823 14.7933 165.221 12.9372 164.837 12.6515C164.39 12.3202 163.545 11.9181 163.553 11.291C164.422 11.6172 167.222 12.3227 167.753 12.874Z" fill="black"/>
<path d="M166.82 8.24895C166.569 7.30319 168.125 7.99607 168.575 8.13009C169.475 8.40067 170.264 8.5701 170.837 9.38942C170.864 10.6108 167.29 8.15032 166.82 8.24642V8.24895Z" fill="black"/>
<path d="M174.097 5.48588C174.275 5.74128 174.036 6.54543 173.516 6.45692C172.729 5.99921 171.804 5.54151 171.342 4.71966C171.754 4.57047 174.014 5.36955 174.097 5.48841V5.48588Z" fill="black"/>
<path d="M178.108 3.72382L178.129 4.45716C177.648 4.80107 175.703 3.5721 176.12 3.19531L178.108 3.72382Z" fill="black"/>
<path d="M182.874 32.6324C184.184 32.6324 185.246 31.1731 185.246 29.3729C185.246 27.5726 184.184 26.1133 182.874 26.1133C181.563 26.1133 180.501 27.5726 180.501 29.3729C180.501 31.1731 181.563 32.6324 182.874 32.6324Z" fill="black"/>
<path d="M197.229 32.0992C198.54 32.0992 199.602 30.6399 199.602 28.8396C199.602 27.0394 198.54 25.5801 197.229 25.5801C195.919 25.5801 194.856 27.0394 194.856 28.8396C194.856 30.6399 195.919 32.0992 197.229 32.0992Z" fill="black"/>
<path d="M189.133 40.2077C190.452 40.2077 191.521 39.9247 191.521 39.5755C191.521 39.2264 190.452 38.9434 189.133 38.9434C187.815 38.9434 186.746 39.2264 186.746 39.5755C186.746 39.9247 187.815 40.2077 189.133 40.2077Z" fill="black"/>
<path d="M281.04 25.7H280.348C280.224 25.7 280.181 25.7456 280.181 25.7987C280.171 26.9619 280.396 28.1529 280.116 29.3086C279.837 30.4642 278.926 31.1495 278.741 32.2116C277.785 37.6459 278.392 40.5717 274.893 45.5078C270.526 51.6704 261.847 53.0992 256.409 47.4626C255.77 46.8 256.025 46.226 256.985 46.5497C257.791 46.8202 259.281 48.2819 260.542 48.7649C270.606 52.6288 277.409 41.9043 277.187 32.9222C277.187 32.8564 277.117 32.8134 277.057 32.8362C272.463 34.6696 268.35 31.6325 269.673 26.5674C269.688 26.5118 269.65 26.4562 269.595 26.446C268.08 26.2184 266.773 26.1451 265.305 26.7217C265.268 26.7368 265.243 26.7773 265.243 26.8178C265.318 29.2454 265.268 30.8891 263.469 32.6643C259.638 36.4422 252.014 33.9691 253.454 28.0796C253.467 28.0265 253.434 27.9709 253.379 27.9633L247.862 26.9897C247.799 26.9796 247.747 27.0302 247.755 27.0934C247.887 28.5297 247.318 29.4679 246.14 30.1987C246.105 30.2189 246.06 30.2164 246.028 30.1911C241.518 26.4916 238.042 32.1484 240.54 36.4144C241.975 38.8648 244.119 37.2969 244.745 37.699C244.975 37.8457 246.958 41.439 247.735 42.2735C248.613 43.2193 251.802 45.0021 251.93 45.2271C252.092 45.5154 251.957 46.0161 251.977 46.3802C251.977 46.4232 251.954 46.4662 251.912 46.4763C251.281 46.6255 247.884 44.0867 247.373 43.6492C246.961 43.2977 245.973 41.9549 245.828 41.9119C245.391 41.7804 244.505 42.3823 243.864 42.405C242.424 42.4581 238.666 40.903 237.655 39.8409C236.263 38.3742 236.445 36.5408 235.878 34.8137C235.539 33.7845 234.793 32.8236 234.444 31.716C233.924 30.0723 234.084 28.201 233.715 26.8911C233.355 25.6166 230.805 24.112 230.383 21.1635C229.899 17.7977 233.76 10.219 236.018 7.62954C240.74 2.21547 257.43 -0.991 264.222 0.275908C266.481 0.698211 273.114 3.581 274.304 5.48515C275.008 6.61298 274.417 6.82287 274.514 7.59161C274.561 7.96081 274.906 8.31736 274.956 8.88633C275.028 9.7183 274.606 10.5098 274.689 11.142C274.776 11.8121 276.56 14.5862 276.947 15.7039C277.703 17.8912 277.741 20.7361 278.509 22.7186C278.611 22.9816 279.814 25.0122 279.929 25.0856C280.254 25.2853 280.703 25.0704 281.082 25.1033C281.461 25.1361 281.406 25.7001 281.04 25.7026V25.7ZM235.257 19.143H235.262V27.8495C235.262 29.7208 237.258 32.5328 237.877 34.3029C238.279 35.4509 238.209 36.771 238.893 37.8255C239.871 39.3301 242.644 40.1797 244.378 40.119C244.438 40.119 244.48 40.0583 244.465 39.9977L244.271 39.2112C244.256 39.153 244.193 39.1252 244.141 39.1505C242.781 39.765 241.131 38.8091 240.123 37.8457C237.575 35.408 237.506 30.4288 240.52 28.3729C241.448 27.7408 242.734 27.895 242.516 26.5447C242.509 26.4991 242.467 26.4637 242.422 26.4637L239.964 26.4916C239.931 26.4916 239.901 26.5093 239.886 26.5345L239.135 27.718C237.748 25.6571 240.989 25.6166 242.402 25.6697C242.447 25.6697 242.484 25.6394 242.492 25.5938C243.407 20.0483 245.656 11.8905 250.158 8.2946C254.19 5.07044 262.81 3.49249 267.828 3.95778C268.914 4.05893 269.967 4.5571 271.055 4.59503C271.157 4.59756 271.19 4.45595 271.098 4.41296C268.25 3.01203 265.3 1.66925 262.089 1.42902C256.788 1.03454 243.215 3.84399 238.925 7.03275C235.21 9.79669 230.501 18.7662 232.759 23.3078C232.836 23.4646 233.67 24.9971 233.992 24.7164C234.007 24.7012 234.017 24.681 234.019 24.6607C234.057 24.3775 234.326 22.3166 234.374 21.9575C234.379 21.9196 234.386 21.8867 234.399 21.8513L235.26 19.148L235.257 19.143ZM276.672 21.4922C276.291 17.9393 275.163 14.4268 273.219 11.4454C273.204 11.4227 273.184 11.4075 273.159 11.4024C271.088 10.9447 268.941 10.9726 266.823 11.0231C264 11.0939 258.817 11.3316 256.239 12.1838C252.167 13.5291 252.91 15.3954 250.944 18.1972C250.063 19.4515 248.78 19.9395 248.106 21.391C247.662 22.3444 246.649 25.9782 247.909 26.4182C249.514 26.9771 251.817 26.8152 253.517 26.9366C253.547 26.9366 253.574 26.9265 253.594 26.9037C255.471 24.6582 257.507 20.9359 260.846 21.1432C262.104 21.2216 262.543 21.955 261.799 22.9513C261.762 22.9993 261.779 23.0727 261.834 23.098C263.426 23.8515 264.3 24.7568 265.053 26.3676C265.076 26.4182 265.136 26.4384 265.183 26.4106C266.658 25.6065 268.173 25.0148 269.767 25.8518C269.81 25.8745 269.86 25.8619 269.887 25.824C270.127 25.475 271.215 23.8793 271.582 23.3458C271.629 23.2775 271.574 23.189 271.492 23.1966C268.552 23.4874 267.746 19.9269 271.255 20.9637C271.901 21.1559 273.648 22.3115 273.825 22.3242C274.179 22.3469 275.634 21.2671 276.555 21.5908C276.62 21.6136 276.685 21.5579 276.677 21.4897L276.672 21.4922ZM270.299 29.0026C270.262 29.0203 270.237 29.0608 270.242 29.1012C270.516 31.7893 273.141 32.8312 275.572 32.5328C278.045 32.2293 277.513 30.4238 277.446 28.3451C277.409 27.1971 277.276 25.4902 277.154 24.3421C277.117 23.9906 276.934 22.797 276.735 22.5517C276.717 22.5315 276.69 22.5239 276.665 22.5239C276.393 22.5391 274.831 22.6301 274.342 22.658C274.272 22.663 274.232 22.7363 274.264 22.7996C274.823 23.849 275.495 24.9945 274.661 26.0869C274.619 26.1426 274.531 26.1325 274.501 26.0692C274.065 25.1715 273.658 24.0993 272.647 23.7074C272.622 23.6973 272.592 23.6973 272.57 23.7099C271.929 24.0614 270.309 26.403 270.409 27.0985C270.419 27.1617 270.494 27.1895 270.548 27.1591C271.474 26.6281 272.323 26.3095 273.328 26.9543C275.634 28.4362 273.588 30.7753 272.68 28.0594C272.67 28.029 272.645 28.0037 272.615 27.9936C271.529 27.6497 271.157 28.6056 270.301 28.9976L270.299 29.0026ZM255.064 26.0035C255.019 25.9757 254.957 25.9934 254.932 26.0414C250.1 35.0388 265.358 36.465 264.457 27.5941C263.988 22.9791 257.899 22.2609 255.89 26.3651C255.865 26.4132 255.808 26.4334 255.76 26.4056L255.064 26.001V26.0035ZM279.088 29.2959C279.108 29.3996 279.255 29.3971 279.275 29.2934C279.54 27.8925 279.542 26.527 279.108 25.1437C279.026 24.8782 279.046 24.3775 278.686 24.4382V27.3336C278.686 27.3336 278.686 27.3463 278.686 27.3539L279.086 29.2985L279.088 29.2959Z" fill="black"/>
<path d="M247.238 35.0564C247.028 35.2385 244.822 33.5442 244.338 33.3191C243.3 32.8387 242.155 32.8311 241.256 32.1483C242.2 31.0812 243.724 31.5743 244.802 32.0902C245.486 32.4164 248.029 34.366 247.238 35.0539V35.0564Z" fill="black"/>
<path d="M235.262 19.1258L234.381 21.8999L234.014 24.6891C233.712 25.0735 232.839 23.4677 232.759 23.3059C230.5 18.7642 235.209 9.7947 238.925 7.03077C243.215 3.842 256.785 1.03255 262.088 1.42704C265.435 1.67739 268.494 3.12384 271.451 4.58546C270.221 4.68408 269.043 4.06959 267.826 3.95833C262.807 3.49556 254.188 5.07351 250.155 8.29515C245.633 11.9087 243.382 20.1272 242.476 25.6728C241.111 25.6146 237.72 25.6171 239.132 27.7185L239.913 26.4896L242.504 26.4592C242.788 27.9006 241.468 27.7261 240.522 28.371C237.508 30.4268 237.577 35.406 240.125 37.8437C241.161 38.8324 242.868 39.8111 244.248 39.1005L244.498 40.112C242.771 40.2182 239.896 39.361 238.895 37.826C238.209 36.774 238.279 35.454 237.879 34.3034C237.261 32.5333 235.264 29.7213 235.264 27.85V19.1258H235.262ZM254.954 3.72568L252.98 3.19717C252.565 3.57396 254.497 4.80293 254.974 4.45902L254.954 3.72568ZM250.973 5.48317C250.891 5.36432 248.648 4.56776 248.238 4.71443C248.695 5.5388 249.616 5.99398 250.397 6.45168C250.916 6.54019 251.153 5.73605 250.973 5.48064V5.48317ZM243.746 8.24963C244.211 8.15101 247.762 10.6115 247.734 9.39263C247.165 8.57078 246.382 8.40136 245.488 8.13331C245.042 7.99928 243.497 7.3064 243.746 8.25216V8.24963ZM244.675 12.8722C244.148 12.3209 241.368 11.6129 240.505 11.2892C240.495 11.9189 241.336 12.3184 241.78 12.6497C242.164 12.9354 244.745 14.7915 244.992 13.6763C245.027 13.517 244.809 13.0138 244.675 12.8722ZM238.154 15.6033C237.485 15.7853 237.957 16.1823 238.276 16.4529C238.738 16.8449 240.936 18.5417 241.386 17.8741C242.254 16.5819 239.112 15.3453 238.154 15.6058V15.6033Z" fill="white"/>
<path d="M238.154 15.6032C239.113 15.3427 242.252 16.5793 241.386 17.8715C240.937 18.5416 238.741 16.8423 238.277 16.4503C237.957 16.1797 237.486 15.7827 238.154 15.6006V15.6032Z" fill="black"/>
<path d="M244.675 12.8711C244.81 13.0127 245.027 13.5159 244.992 13.6752C244.745 14.7904 242.162 12.9343 241.78 12.6485C241.336 12.3173 240.497 11.9152 240.505 11.2881C241.368 11.6143 244.148 12.3198 244.675 12.8711Z" fill="black"/>
<path d="M243.747 8.24797C243.498 7.30221 245.042 7.99509 245.489 8.12912C246.383 8.3997 247.166 8.56912 247.735 9.38844C247.763 10.6098 244.214 8.14935 243.747 8.24544V8.24797Z" fill="black"/>
<path d="M250.974 5.48319C251.151 5.7386 250.914 6.54274 250.397 6.45424C249.616 5.99653 248.698 5.53882 248.239 4.71698C248.648 4.56778 250.891 5.36687 250.974 5.48572V5.48319Z" fill="black"/>
<path d="M254.954 3.7252L254.974 4.45854C254.497 4.80245 252.566 3.57347 252.98 3.19669L254.954 3.7252Z" fill="black"/>
<path d="M262.939 29.7237L261.717 29.8906C260.449 27.3265 258.161 27.9586 258.22 30.7605L257.459 30.6467C256.369 29.8451 258.847 24.7395 261.849 27.4605C262.268 27.8398 263.304 29.1927 262.937 29.7237H262.939Z" fill="black"/>
<path d="M264.574 39.8308L265.797 39.6639C267.065 42.2281 269.353 41.5959 269.293 38.794L270.054 38.9078C271.145 39.7094 268.667 44.815 265.665 42.094C265.246 41.7147 264.21 40.3618 264.577 39.8308H264.574Z" fill="black"/>
<path d="M314.944 15.9315C315.886 15.6715 318.97 16.9061 318.12 18.1962C317.678 18.8653 315.521 17.1687 315.065 16.7773C314.751 16.5072 314.287 16.1108 314.944 15.929V15.9315Z" fill="black"/>
<path d="M321.351 13.2045C321.484 13.3459 321.697 13.8484 321.663 14.0074C321.42 15.1208 318.882 13.2677 318.507 12.9824C318.07 12.6516 317.247 12.2502 317.254 11.6241C318.102 11.9497 320.834 12.6542 321.351 13.2045Z" fill="black"/>
<path d="M323.626 35.1014C323.42 35.2832 321.253 33.5916 320.777 33.3669C319.757 32.8872 318.632 32.8796 317.749 32.1979C318.676 31.1325 320.174 31.6248 321.233 32.1399C321.905 32.4656 324.404 34.4122 323.626 35.0989V35.1014Z" fill="black"/>
<path d="M320.196 8.33621C319.951 7.39196 321.469 8.08374 321.907 8.21755C322.785 8.4877 323.555 8.65686 324.114 9.47488C324.141 10.6943 320.655 8.23775 320.196 8.33369V8.33621Z" fill="black"/>
<path d="M327.295 5.57359C327.469 5.82859 327.236 6.63146 326.728 6.5431C325.961 6.08612 325.059 5.62914 324.607 4.80859C325.01 4.65963 327.214 5.45745 327.295 5.57612V5.57359Z" fill="black"/>
<path d="M331.208 3.82012L331.227 4.5523C330.759 4.89567 328.861 3.66864 329.268 3.29245L331.208 3.82012Z" fill="black"/>
<path d="M357.698 25.7001H357.007C356.882 25.7001 356.839 25.7456 356.839 25.7987C356.829 26.9619 357.054 28.153 356.774 29.3086C356.495 30.4642 355.584 31.1495 355.399 32.2116C354.444 37.6459 355.05 40.5717 351.551 45.5078C347.184 51.6704 338.505 53.0992 333.067 47.4626C332.428 46.8 332.683 46.226 333.644 46.5497C334.45 46.8202 335.939 48.2819 337.2 48.7649C347.264 52.6288 354.067 41.9043 353.845 32.9222C353.845 32.8564 353.775 32.8134 353.715 32.8362C349.121 34.6696 345.008 31.6325 346.331 26.5674C346.346 26.5118 346.308 26.4562 346.253 26.446C344.739 26.2184 343.431 26.1451 341.964 26.7217C341.926 26.7368 341.901 26.7773 341.901 26.8178C341.976 29.2454 341.926 30.8891 340.127 32.6643C336.296 36.4422 328.673 33.9691 330.112 28.0796C330.125 28.0265 330.093 27.9709 330.038 27.9633L324.52 26.9897C324.458 26.9796 324.405 27.0302 324.413 27.0934C324.545 28.5297 323.976 29.4679 322.798 30.1987C322.763 30.2189 322.718 30.2164 322.686 30.1911C318.176 26.4916 314.7 32.1484 317.198 36.4144C318.633 38.8648 320.777 37.2969 321.403 37.699C321.633 37.8457 323.617 41.4391 324.393 42.2735C325.271 43.2193 328.46 45.0021 328.588 45.2271C328.75 45.5154 328.615 46.0161 328.635 46.3802C328.635 46.4232 328.613 46.4662 328.57 46.4763C327.939 46.6255 324.543 44.0867 324.031 43.6492C323.619 43.2977 322.631 41.9549 322.486 41.9119C322.05 41.7804 321.164 42.3823 320.522 42.405C319.082 42.4581 315.324 40.903 314.313 39.8409C312.921 38.3742 313.103 36.5408 312.537 34.8137C312.197 33.7845 311.451 32.8236 311.102 31.716C310.583 30.0723 310.742 28.201 310.373 26.8911C310.014 25.6166 307.463 24.112 307.042 21.1635C306.557 17.7977 310.418 10.219 312.676 7.62954C317.398 2.21547 334.088 -0.991 340.881 0.275908C343.139 0.698211 349.772 3.581 350.962 5.48515C351.666 6.61298 351.075 6.82287 351.172 7.59161C351.219 7.96081 351.564 8.31736 351.614 8.88633C351.686 9.7183 351.264 10.5098 351.347 11.142C351.434 11.8121 353.218 14.5862 353.605 15.7039C354.361 17.8912 354.399 20.7361 355.167 22.7186C355.27 22.9816 356.473 25.0122 356.587 25.0856C356.912 25.2853 357.361 25.0704 357.74 25.1033C358.12 25.1361 358.065 25.7001 357.698 25.7026V25.7001ZM311.915 19.143H311.92V27.8495C311.92 29.7208 313.917 32.5328 314.536 34.3029C314.937 35.4509 314.867 36.771 315.551 37.8255C316.529 39.3301 319.302 40.1797 321.036 40.119C321.096 40.119 321.139 40.0583 321.124 39.9977L320.929 39.2112C320.914 39.1531 320.852 39.1252 320.799 39.1505C319.439 39.765 317.79 38.8091 316.782 37.8457C314.234 35.408 314.164 30.4288 317.178 28.373C318.107 27.7408 319.392 27.895 319.175 26.5447C319.167 26.4991 319.125 26.4637 319.08 26.4637L316.622 26.4916C316.589 26.4916 316.559 26.5093 316.544 26.5345L315.793 27.718C314.406 25.6571 317.647 25.6166 319.06 25.6697C319.105 25.6697 319.142 25.6394 319.15 25.5938C320.066 20.0483 322.314 11.8905 326.816 8.2946C330.849 5.07044 339.468 3.49249 344.487 3.95778C345.572 4.05893 346.625 4.5571 347.713 4.59503C347.816 4.59756 347.848 4.45595 347.756 4.41296C344.908 3.01202 341.959 1.66925 338.747 1.42902C333.446 1.03454 319.873 3.84399 315.584 7.03275C311.868 9.79669 307.159 18.7662 309.417 23.3078C309.495 23.4646 310.328 24.9971 310.65 24.7164C310.665 24.7012 310.675 24.681 310.678 24.6607C310.715 24.3775 310.984 22.3166 311.032 21.9575C311.037 21.9196 311.044 21.8867 311.057 21.8513L311.918 19.148L311.915 19.143ZM353.331 21.4922C352.949 17.9393 351.821 14.4268 349.877 11.4454C349.862 11.4227 349.842 11.4075 349.817 11.4024C347.746 10.9447 345.6 10.9726 343.481 11.0231C340.658 11.0939 335.475 11.3316 332.897 12.1838C328.825 13.5291 329.568 15.3954 327.602 18.1972C326.721 19.4515 325.438 19.9395 324.765 21.391C324.32 22.3444 323.307 25.9782 324.567 26.4182C326.172 26.9771 328.475 26.8152 330.175 26.9366C330.205 26.9366 330.232 26.9265 330.252 26.9037C332.129 24.6582 334.165 20.9359 337.504 21.1432C338.762 21.2216 339.201 21.955 338.457 22.9513C338.42 22.9993 338.437 23.0727 338.492 23.098C340.085 23.8515 340.958 24.7568 341.712 26.3676C341.734 26.4182 341.794 26.4384 341.841 26.4106C343.316 25.6065 344.831 25.0148 346.426 25.8518C346.468 25.8745 346.518 25.8619 346.545 25.824C346.785 25.475 347.873 23.8793 348.24 23.3458C348.287 23.2775 348.232 23.189 348.15 23.1966C345.21 23.4874 344.404 19.9269 347.913 20.9637C348.559 21.1559 350.306 22.3115 350.483 22.3242C350.838 22.3469 352.293 21.2671 353.213 21.5908C353.278 21.6136 353.343 21.5579 353.336 21.4897L353.331 21.4922ZM346.9 29.1012C347.174 31.7893 349.8 32.8312 352.23 32.5328C354.703 32.2293 354.172 30.4238 354.104 28.3451C354.067 27.1971 353.935 25.4902 353.812 24.3421C353.775 23.9906 353.593 22.797 353.393 22.5517C353.376 22.5315 353.348 22.5239 353.323 22.5239C353.051 22.5391 351.489 22.6301 351 22.658C350.93 22.663 350.89 22.7363 350.923 22.7996C351.481 23.849 352.153 24.9945 351.319 26.087C351.277 26.1426 351.19 26.1325 351.16 26.0693C350.723 25.1715 350.316 24.0993 349.305 23.7074C349.28 23.6973 349.251 23.6973 349.228 23.7099C348.587 24.0614 347.267 26.3398 347.067 27.0985C347.052 27.1591 346.895 29.0557 346.9 29.0987V29.1012ZM331.725 26.0035C331.68 25.9757 331.617 25.9934 331.592 26.0414C326.761 35.0388 342.019 36.465 341.118 27.5941C340.649 22.9791 334.559 22.2609 332.551 26.3651C332.526 26.4132 332.468 26.4334 332.421 26.4056L331.725 26.001V26.0035ZM355.746 29.2959C355.766 29.3996 355.914 29.3971 355.933 29.2934C356.198 27.8925 356.2 26.527 355.766 25.1437C355.684 24.8782 355.704 24.3775 355.345 24.4382V27.3336C355.345 27.3336 355.345 27.3463 355.345 27.3539L355.744 29.2985L355.746 29.2959Z" fill="black"/>
<path d="M311.857 19.1948L310.992 21.9645L310.631 24.7493C310.334 25.133 309.476 23.5298 309.398 23.3682C307.179 18.8338 311.806 9.87849 315.457 7.11894C319.671 3.93523 333.005 1.13023 338.215 1.52409C341.503 1.77404 344.509 3.2182 347.415 4.6775C346.206 4.77597 345.049 4.16245 343.852 4.05136C338.921 3.58933 330.452 5.16478 326.49 8.38131C322.047 11.9892 319.836 20.1946 318.946 25.7314C317.604 25.6733 314.272 25.6759 315.66 27.7739L316.427 26.5469L318.973 26.5166C319.252 27.9557 317.955 27.7815 317.026 28.4253C314.064 30.4779 314.132 35.4492 316.636 37.883C317.653 38.8702 319.331 39.8473 320.686 39.1378L320.932 40.1478C319.235 40.2538 316.41 39.3979 315.427 37.8654C314.753 36.8151 314.821 35.4972 314.429 34.3484C313.821 32.5811 311.86 29.7735 311.86 27.9052V19.1948H311.857ZM331.208 3.81909L329.268 3.29141C328.861 3.6676 330.759 4.89463 331.227 4.55126L331.208 3.81909ZM327.294 5.57379C327.213 5.45513 325.009 4.65983 324.607 4.80627C325.056 5.62933 325.961 6.08379 326.728 6.54077C327.238 6.62914 327.471 5.82626 327.294 5.57127V5.57379ZM320.196 8.33587C320.652 8.2374 324.141 10.694 324.114 9.47706C323.555 8.65651 322.785 8.48735 321.908 8.21973C321.469 8.08592 319.951 7.39414 320.196 8.33839V8.33587ZM321.106 12.9511C320.588 12.4007 317.857 11.6938 317.009 11.3706C316.999 11.9993 317.825 12.3982 318.262 12.7289C318.639 13.0142 321.174 14.8674 321.417 13.754C321.451 13.5949 321.238 13.0925 321.106 12.9511ZM314.699 15.6778C314.042 15.8596 314.505 16.256 314.819 16.5262C315.273 16.9175 317.433 18.6116 317.874 17.9451C318.727 16.6549 315.64 15.4203 314.699 15.6804V15.6778Z" fill="#8815E6"/>
<path d="M335.857 32.6812C337.135 32.6812 338.171 31.2241 338.171 29.4268C338.171 27.6294 337.135 26.1724 335.857 26.1724C334.578 26.1724 333.542 27.6294 333.542 29.4268C333.542 31.2241 334.578 32.6812 335.857 32.6812Z" fill="black"/>
<path d="M350.083 32.16C351.361 32.16 352.397 30.7029 352.397 28.9056C352.397 27.1082 351.361 25.6512 350.083 25.6512C348.804 25.6512 347.768 27.1082 347.768 28.9056C347.768 30.7029 348.804 32.16 350.083 32.16Z" fill="black"/>
<path d="M337.399 40.8128C337.132 43.3679 338.507 43.5598 339.064 43.8425C341.646 45.163 350.271 42.9336 348.484 40.2119" fill="black"/>
</svg>
