<svg width="76" height="74" viewBox="0 0 76 74" fill="none" xmlns="http://www.w3.org/2000/svg">
<path d="M6.52509 33.8545L4.84463 39.0768L4.14484 44.3276C3.56882 45.0512 1.90265 42.0283 1.75032 41.7236C-2.55793 33.1738 6.42512 16.2883 13.5135 11.0851C21.6968 5.08211 47.5843 -0.206789 57.7003 0.535847C64.0842 1.00714 69.9205 3.73013 75.5617 6.4817C73.2148 6.66736 70.9678 5.51056 68.6447 5.3011C59.0714 4.42993 42.6286 7.40047 34.9357 13.4653C26.3097 20.2681 22.0157 35.7397 20.2877 46.1794C17.6837 46.0699 11.2142 46.0747 13.9086 50.0306L15.3986 47.7171L20.34 47.6599C20.8827 50.3734 18.3644 50.0449 16.5602 51.2588C10.8095 55.1291 10.9428 64.5025 15.8033 69.0916C17.7789 70.953 21.0351 72.7953 23.6676 71.4576L24.1437 73.3618C20.8494 73.5617 15.3653 71.9479 13.4564 69.0583C12.1472 67.078 12.2805 64.593 11.5188 62.427C10.3382 59.0946 6.52985 53.801 6.52985 50.2782V33.8545H6.52509ZM44.0901 4.86313L40.3246 3.86819C39.5343 4.5775 43.2189 6.8911 44.1282 6.24367L44.0901 4.86313ZM36.4971 8.17167C36.34 7.94793 32.0603 6.44837 31.2796 6.72448C32.1508 8.2764 33.9074 9.13329 35.3975 9.99494C36.3876 10.1616 36.8399 8.64772 36.4971 8.16691V8.17167ZM22.7107 13.3796C23.5962 13.194 30.3704 17.8259 30.318 15.5314C29.2326 13.9842 27.7378 13.6653 26.0336 13.1607C25.1814 12.9084 22.2347 11.604 22.7107 13.3844V13.3796ZM24.4769 22.0818C23.4724 21.044 18.1692 19.7111 16.5221 19.1018C16.5031 20.2871 18.1074 21.0393 18.9547 21.6629C19.6878 22.2008 24.6102 25.695 25.0815 23.5957C25.1481 23.2957 24.734 22.3484 24.4769 22.0818ZM12.0377 27.2231C10.7619 27.5659 11.6617 28.3133 12.271 28.8227C13.1517 29.5605 17.3457 32.7548 18.2026 31.4981C19.8592 29.0655 13.8658 26.7376 12.0377 27.2279V27.2231Z" fill="#8815E6"/>
</svg>
