<svg width="822" height="809" viewBox="0 0 822 809" fill="none" xmlns="http://www.w3.org/2000/svg">
<path d="M441.879 314.649C441.879 314.649 401.33 325.423 352.618 363.862C279.885 421.126 253.379 519.728 243.913 550.208C234.446 580.687 235.79 687.47 316.683 737.627C397.576 787.783 473.527 761.666 540.96 690.751C608.393 619.836 607.114 518.708 584.348 416.871C561.581 315.033 485.746 300.989 441.879 314.649ZM579.518 420.433C601.759 519.545 603.065 617.999 537.71 686.954C472.356 755.908 398.565 781.186 319.933 732.282C241.301 683.377 240.02 579.499 249.079 549.799C258.138 520.099 283.863 424.285 354.445 368.567C401.747 331.296 441.079 320.817 441.079 320.817C483.604 307.589 557.307 321.397 579.518 420.433Z" fill="black"/>
<path d="M643.978 111.617C648.827 111.642 648.558 100.501 642.981 64.1371C637.053 25.6477 634.346 17.3707 628.87 19.3278C621.372 22.1118 636.138 111.374 643.978 111.617ZM476.872 151.177C477.852 165.667 480.46 167.365 512.878 174.712C546.353 182.336 552.738 182.536 554.675 176.378C558.143 165.198 549.92 160.336 508.981 148.841C478.772 140.377 476.148 140.481 476.872 151.177ZM521.221 67.7697C521.788 78.1977 524.113 81.8554 537.284 93.3197C576.481 127.179 601.801 154.473 600.291 134.196C599.731 125.916 593.091 118.87 548.554 77.7412C523.827 55.1212 520.553 53.8134 521.221 67.7697Z" fill="#8815E6"/>
<path fill-rule="evenodd" clip-rule="evenodd" d="M454.348 580.151C452.826 582.502 456.281 586.879 471.715 602.128C508.709 638.662 518.296 639.58 541.38 655.01C583.954 683.383 608.152 678.073 635.224 634.508C635.778 633.586 663.731 576.24 667.052 568.127C669.406 562.273 669.268 562.32 675.534 565.82C678.53 567.524 681.801 569.228 682.769 569.642C687.699 571.806 693.694 563.785 692.499 556.687C690.567 545.535 691.355 533.597 695.096 515.206C697.174 504.835 695.377 505.251 682.882 517.746C671.539 529.088 663.656 535.13 654.713 539.373C639.962 546.293 645.215 547.857 656.182 554.49C659.453 556.471 662.401 558.312 662.724 558.635C665.304 561.215 636.154 617.455 635.6 618.838C614.517 669.591 593.681 676.604 549.77 647.632C530.695 635.011 517.976 630.684 489.412 604.333C461.768 578.903 457.161 575.771 454.348 580.151Z" fill="black"/>
<path fill-rule="evenodd" clip-rule="evenodd" d="M289.341 87.187C281.256 89.0582 276.917 89.2554 242.011 89.354C195.765 89.5505 197.639 89.0582 206.513 99.105C223.079 117.72 225.051 121.759 220.713 127.865C213.514 137.912 204.541 141.162 183.834 141.162C141.039 141.261 128.122 158.201 137.489 202.229C146.068 242.512 134.137 252.953 77.8326 254.43C18.3735 256.006 -3.51675 275.114 0.82209 321.8C3.87846 354.795 11.7672 356.371 11.7672 323.966C11.7672 276.886 30.0095 260.34 82.2702 260.34C137.785 260.34 159.281 240.542 150.702 197.304C143.011 158.693 153.463 146.087 193.3 146.087C210.95 146.087 220.416 142.54 231.165 132.1C234.911 128.357 238.559 125.698 238.855 125.403C244.968 118.705 224.854 98.9071 224.854 97.9226C224.854 97.6268 234.517 97.2331 246.35 97.2331C265.775 97.1352 284.905 95.4605 292.891 93.2936C294.962 92.7027 295.16 92.8992 294.469 94.4753C290.525 104.029 283.129 134.464 281.059 150.026C280.467 154.655 279.876 158.496 279.678 158.595C279.58 158.693 276.819 155.739 273.663 151.997C266.071 143.034 267.156 142.836 246.942 156.921C235.602 164.8 228.601 167.361 213.514 169.233C177.03 173.862 171.606 179.574 174.268 210.206C178.311 256.104 162.436 282.501 125.755 290.873C121.417 291.858 112.739 293.828 106.527 295.207C70.8322 303.185 64.8168 320.52 67.8739 386.806C69.2543 416.65 83.2565 412.119 81.4812 396.163C74.086 332.733 83.0591 314.019 125.755 303.48C176.636 290.971 193.103 267.135 186.891 214.736C183.933 189.325 189.751 182.824 217.952 180.165C241.321 177.998 247.533 173.762 263.606 161.55C263.606 161.55 277.409 173.861 280.269 176.816C284.805 181.346 290.328 178.59 291.708 171.104C293.286 163.027 305.414 113.781 308.57 102.749C313.895 84.3306 311.331 82.2622 289.341 87.187Z" fill="black"/>
<path d="M820.147 244.094L818.127 244.397C817.495 244.397 815.21 244.902 815.21 245.167C815.159 250.975 815.98 253.905 815.98 259.991C815.98 266.077 813.581 271.229 812.634 276.532C807.798 303.668 810.866 318.277 793.163 342.925C771.066 373.697 727.149 380.831 699.635 352.686C696.403 349.377 697.691 346.511 702.552 348.127C706.631 349.478 714.169 356.777 720.545 359.189C771.47 378.483 805.891 324.932 804.767 280.081C804.767 279.752 804.237 279.348 804.111 279.664C788.756 318.403 762.505 282.846 766.748 248.374C766.785 248.084 766.634 247.806 766.344 247.768C758.692 246.632 752.062 246.266 744.65 249.144C744.448 249.22 744.322 249.422 744.322 249.637C744.701 261.759 736.935 288.945 727.831 297.796C708.449 316.661 677.387 285.321 684.672 255.925C684.735 255.66 684.571 255.382 684.293 255.344L656.375 250.483C656.06 250.432 655.794 250.685 655.832 251.001C656.501 258.16 653.635 262.845 647.663 266.494C647.486 266.608 647.246 266.582 647.082 266.456C624.265 247.995 606.688 276.242 619.328 297.544C626.588 309.779 637.435 301.95 640.604 303.958C641.766 304.691 651.804 322.633 655.731 326.8C660.176 331.523 676.313 340.425 676.957 341.549C677.778 343.001 677.096 345.501 677.197 347.307C677.197 347.521 677.096 347.723 676.881 347.774C673.699 348.544 656.489 335.841 653.913 333.669C651.83 331.914 646.829 325.209 646.097 324.995C643.887 324.338 639.405 327.343 636.159 327.457C628.874 327.722 609.857 319.957 604.744 314.653C597.698 307.33 598.619 298.175 595.753 289.551C594.036 284.412 586.371 279.613 583.972 274.323C580.765 267.264 574.35 258.564 572.482 252.023C570.663 245.659 570.082 236.113 567.949 221.39C565.499 204.584 585.033 166.741 596.46 153.811C620.35 126.776 704.8 110.765 739.17 117.092C750.598 119.2 784.16 133.595 790.183 143.103C793.744 148.735 790.751 149.783 791.244 153.621C791.484 155.465 793.226 157.245 793.479 160.086C793.845 164.241 791.711 168.193 792.128 171.35C792.57 174.696 801.598 188.548 803.555 194.129C807.381 205.051 807.571 219.256 811.46 229.156C811.977 230.469 814.465 240.609 815.046 240.975C816.687 241.972 818.051 241.063 819.97 241.227C821.89 241.392 822.016 244.094 820.16 244.106L820.147 244.094ZM592.596 211.301H592.622V254.776C592.622 264.12 602.723 278.161 605.855 287C607.888 292.733 607.534 299.324 610.994 304.59C615.944 312.103 629.972 316.345 638.748 316.042C639.051 316.042 639.266 315.739 639.19 315.436L638.205 311.509C638.129 311.219 637.814 311.08 637.548 311.206C630.667 314.274 622.32 309.501 617.219 304.691C604.327 292.518 603.973 267.656 619.227 257.39C623.924 254.233 630.427 255.003 629.328 248.261C629.29 248.033 629.076 247.857 628.848 247.857L616.411 247.995C616.247 247.995 616.095 248.084 616.019 248.21L612.219 254.119C605.198 243.816 621.626 243.626 628.76 243.892C628.975 243.892 629.164 243.753 629.189 243.538C633.823 215.847 645.2 175.1 667.979 157.132C688.385 141.032 731.998 133.153 757.391 135.476C762.884 135.982 768.225 138.482 773.73 138.658C774.235 138.671 774.412 137.964 773.945 137.749C759.538 130.754 744.613 124.049 728.349 122.849C701.529 120.88 632.851 134.908 611.145 150.831C592.344 164.632 568.517 209.42 579.944 232.098C580.336 232.881 584.566 240.545 586.182 239.119C586.258 239.056 586.296 238.942 586.321 238.841C586.51 237.452 587.887 227.136 588.126 225.33C588.152 225.141 588.19 224.976 588.253 224.8L592.609 211.301H592.596ZM802.154 223.019C800.222 205.278 794.514 187.739 784.678 172.852C784.602 172.739 784.501 172.663 784.375 172.638C773.894 170.352 763.035 170.491 752.315 170.744C738.034 171.097 711.808 172.284 698.764 176.539C678.157 183.257 681.92 192.576 671.97 206.566C667.512 212.829 661.022 215.266 657.613 222.514C655.365 227.275 650.239 245.42 656.615 247.617C664.734 250.407 676.402 249.599 684.988 250.205C685.139 250.205 685.266 250.155 685.367 250.041C694.862 238.828 705.166 220.229 722.061 221.277C728.412 221.668 730.634 225.33 726.897 230.292C726.707 230.545 726.796 230.911 727.074 231.037C735.13 234.8 739.536 239.308 743.35 247.364C743.463 247.617 743.767 247.718 744.006 247.591C751.469 243.576 759.134 240.621 767.202 244.813C767.417 244.927 767.669 244.864 767.808 244.675C769.008 242.945 774.538 234.964 776.382 232.287C776.622 231.947 776.344 231.505 775.927 231.542C761.053 232.995 756.974 215.216 774.728 220.393C777.998 221.352 786.837 227.123 787.734 227.186C789.527 227.3 796.888 221.908 801.548 223.524C801.876 223.638 802.204 223.36 802.166 223.019H802.154ZM769.614 261.039C771.798 279.474 787.557 303.504 797.179 285.106C803.012 273.944 806.409 267.63 806.068 257.251C805.879 251.518 805.209 242.995 804.591 237.262C804.464 236.076 803.997 233.007 803.404 230.734C803.012 229.232 801.636 228.209 800.083 228.297C798.075 228.411 795.12 228.588 792.848 228.714C791.332 228.802 790.436 230.419 791.143 231.77C793.58 236.391 795.6 241.29 791.951 245.988C791.736 246.253 791.307 246.215 791.156 245.912C788.946 241.429 786.888 236.05 781.761 234.106C781.647 234.055 781.509 234.055 781.395 234.118C778.162 235.848 769.942 247.579 770.447 251.038C770.498 251.354 769.576 260.812 769.601 261.026L769.614 261.039ZM695.835 247.276C693.928 246.177 691.062 246.821 690.556 248.968C677.361 304.526 738.312 322.015 740.37 253.513C741.064 230.356 707.186 226.883 697.021 247.377C696.895 247.617 696.605 247.718 696.365 247.579L695.847 247.276H695.835ZM810.866 262.378C810.967 262.895 811.902 262.895 811.889 262.378C811.75 255.597 811.409 248.639 811.27 240.381C811.245 238.992 811.7 237.237 809.679 237.831L810.639 248.867C810.639 248.867 810.715 252.137 810.727 252.162L810.866 262.39V262.378Z" fill="black"/>
<ellipse cx="638.404" cy="281.538" rx="15.5153" ry="8.87615" fill="black"/>
<path d="M592.558 210.809L588.101 224.66L586.245 238.588C584.717 240.507 580.298 232.489 579.894 231.681C568.466 209.003 592.293 164.215 611.095 150.414C632.801 134.491 701.466 120.463 728.298 122.432C745.231 123.682 760.712 130.905 775.675 138.203C769.45 138.696 763.49 135.628 757.328 135.072C731.935 132.761 688.321 140.64 667.916 156.727C645.036 174.771 633.647 215.809 629.063 243.5C622.156 243.209 604.996 243.222 612.143 253.715L616.095 247.578L629.202 247.427C630.641 254.624 623.962 253.753 619.176 256.973C603.923 267.239 604.276 292.101 617.168 304.273C622.409 309.211 631.045 314.097 638.028 310.549L639.291 315.6C630.553 316.13 616.007 311.85 610.943 304.185C607.471 298.932 607.824 292.341 605.804 286.596C602.673 277.757 592.571 263.716 592.571 254.372V210.809H592.558ZM692.198 133.898L682.21 131.259C680.114 133.14 689.887 139.277 692.299 137.56L692.198 133.898ZM672.058 142.686C671.641 142.093 660.29 138.115 658.219 138.847C660.529 142.964 665.189 145.237 669.141 147.522C671.767 147.964 672.967 143.949 672.058 142.673V142.686ZM635.49 156.487C637.839 155.995 655.807 168.281 655.668 162.195C652.789 158.091 648.824 157.245 644.304 155.907C642.044 155.237 634.227 151.777 635.49 156.5V156.487ZM640.175 179.582C637.51 176.829 623.444 173.294 619.075 171.678C619.025 174.822 623.28 176.817 625.527 178.471C627.472 179.898 640.528 189.166 641.778 183.597C641.955 182.802 640.857 180.289 640.175 179.582ZM607.18 193.207C603.796 194.116 606.183 196.098 607.799 197.449C610.135 199.406 621.26 207.879 623.532 204.546C627.927 198.093 612.029 191.919 607.18 193.219V193.207Z" fill="#8815E6"/>
<path d="M607.181 193.207C612.029 191.906 627.914 198.081 623.532 204.533C621.26 207.879 610.148 199.394 607.799 197.437C606.183 196.086 603.797 194.103 607.181 193.194V193.207ZM640.175 179.582C640.857 180.289 641.955 182.802 641.778 183.598C640.528 189.166 627.459 179.898 625.528 178.471C623.28 176.817 619.037 174.809 619.075 171.678C623.444 173.307 637.511 176.83 640.175 179.582ZM635.49 156.487C634.228 151.765 642.044 155.225 644.304 155.894C648.824 157.245 652.789 158.091 655.668 162.182C655.807 168.281 637.851 155.995 635.49 156.475V156.487ZM672.058 142.686C672.954 143.962 671.755 147.977 669.141 147.535C665.189 145.249 660.542 142.964 658.219 138.86C660.29 138.115 671.641 142.105 672.058 142.699V142.686ZM692.198 133.898L692.299 137.56C689.887 139.277 680.114 133.14 682.21 131.259L692.198 133.898Z" fill="black"/>
<path d="M742.125 281.116C751.835 286.495 760.358 287.417 763.237 283.919C763.831 283.199 764.437 276.558 764.374 274.398" stroke="#1D1D1B" stroke-width="5.05079" stroke-miterlimit="10"/>
<path d="M726.455 261.645C726.455 262.428 726.379 263.203 726.226 263.971C726.074 264.738 725.848 265.483 725.547 266.206C725.247 266.93 724.88 267.617 724.446 268.268C724.011 268.918 723.517 269.52 722.964 270.073C722.411 270.626 721.809 271.12 721.158 271.556C720.506 271.99 719.819 272.357 719.097 272.657C718.373 272.957 717.628 273.184 716.861 273.336C716.093 273.488 715.318 273.564 714.535 273.565C713.752 273.565 712.977 273.488 712.209 273.336C711.441 273.184 710.697 272.957 709.974 272.657C709.25 272.357 708.563 271.99 707.912 271.556C707.262 271.121 706.66 270.627 706.107 270.073C705.554 269.52 705.059 268.918 704.624 268.268C704.19 267.616 703.823 266.929 703.523 266.207C703.223 265.483 702.996 264.738 702.844 263.971C702.692 263.203 702.616 262.428 702.615 261.645C702.615 260.862 702.691 260.087 702.844 259.319C702.996 258.551 703.223 257.806 703.523 257.084C703.823 256.36 704.19 255.673 704.624 255.022C705.059 254.371 705.553 253.769 706.107 253.216C706.66 252.663 707.262 252.169 707.912 251.734C708.564 251.3 709.251 250.932 709.973 250.633C710.697 250.332 711.442 250.106 712.209 249.953C712.977 249.802 713.752 249.726 714.535 249.725C715.318 249.725 716.093 249.801 716.861 249.953C717.629 250.106 718.374 250.332 719.096 250.633C719.82 250.932 720.507 251.3 721.158 251.734C721.809 252.169 722.411 252.663 722.964 253.216C723.517 253.769 724.011 254.371 724.446 255.022C724.88 255.673 725.247 256.36 725.547 257.083C725.848 257.807 726.074 258.552 726.226 259.319C726.378 260.087 726.454 260.862 726.455 261.645ZM799.78 257.011C799.78 257.794 799.704 258.569 799.551 259.337C799.399 260.104 799.172 260.849 798.872 261.572C798.572 262.295 798.205 262.983 797.771 263.634C797.336 264.284 796.842 264.886 796.288 265.439C795.735 265.992 795.133 266.486 794.483 266.922C793.831 267.356 793.144 267.723 792.422 268.023C791.698 268.323 790.953 268.55 790.186 268.702C789.418 268.854 788.643 268.93 787.86 268.931C787.077 268.931 786.302 268.854 785.534 268.702C784.766 268.55 784.021 268.323 783.299 268.023C782.575 267.723 781.888 267.356 781.237 266.922C780.586 266.487 779.984 265.993 779.431 265.439C778.878 264.886 778.384 264.284 777.949 263.634C777.515 262.982 777.148 262.295 776.848 261.573C776.547 260.849 776.321 260.103 776.169 259.337C776.017 258.569 775.941 257.794 775.94 257.011C775.94 256.228 776.016 255.453 776.169 254.685C776.321 253.917 776.547 253.172 776.848 252.45C777.148 251.726 777.515 251.039 777.949 250.388C778.383 249.737 778.878 249.135 779.431 248.582C779.984 248.029 780.586 247.535 781.237 247.1C781.889 246.665 782.576 246.298 783.298 245.999C784.022 245.698 784.767 245.472 785.534 245.319C786.302 245.168 787.077 245.092 787.86 245.091C788.643 245.091 789.418 245.167 790.186 245.319C790.954 245.472 791.699 245.698 792.421 245.999C793.145 246.298 793.832 246.665 794.483 247.1C795.133 247.534 795.735 248.028 796.288 248.582C796.841 249.135 797.336 249.737 797.771 250.388C798.205 251.039 798.572 251.726 798.872 252.449C799.172 253.172 799.399 253.918 799.551 254.685C799.703 255.453 799.779 256.228 799.78 257.011ZM764.21 325.285C764.21 326.354 764.133 327.412 763.981 328.46C763.829 329.508 763.602 330.526 763.302 331.514C763.002 332.501 762.635 333.439 762.201 334.327C761.766 335.216 761.272 336.038 760.718 336.794C760.165 337.549 759.563 338.224 758.913 338.818C758.261 339.412 757.574 339.913 756.851 340.321C756.128 340.732 755.383 341.041 754.616 341.248C753.848 341.457 753.073 341.561 752.29 341.561C751.507 341.561 750.732 341.457 749.964 341.248C749.196 341.039 748.451 340.73 747.729 340.322C747.005 339.913 746.318 339.412 745.667 338.818C745.016 338.225 744.414 337.55 743.861 336.794C743.308 336.038 742.814 335.216 742.379 334.327C741.944 333.439 741.577 332.501 741.278 331.514C740.977 330.526 740.751 329.508 740.598 328.46C740.447 327.412 740.371 326.353 740.37 325.285C740.37 324.216 740.446 323.157 740.598 322.109C740.751 321.061 740.977 320.043 741.278 319.056C741.577 318.068 741.944 317.131 742.379 316.243C742.813 315.354 743.307 314.531 743.861 313.775C744.414 313.02 745.016 312.345 745.667 311.751C746.318 311.158 747.005 310.657 747.728 310.249C748.452 309.838 749.197 309.529 749.964 309.322C750.732 309.113 751.507 309.009 752.29 309.009C753.073 309.009 753.848 309.113 754.616 309.322C755.383 309.53 756.128 309.839 756.851 310.247C757.575 310.656 758.262 311.158 758.913 311.751C759.563 312.345 760.165 313.019 760.718 313.775C761.271 314.531 761.765 315.354 762.201 316.243C762.635 317.131 763.002 318.068 763.302 319.056C763.602 320.043 763.829 321.061 763.981 322.109C764.133 323.158 764.209 324.216 764.21 325.285Z" fill="black"/>
</svg>
