<svg width="305" height="266" viewBox="0 0 305 266" fill="none" xmlns="http://www.w3.org/2000/svg">
<path fill-rule="evenodd" clip-rule="evenodd" d="M177.178 8.51084C183.973 9.29065 193.665 12.8558 198.79 15.975C208.928 22.1023 206.7 41.8205 192.551 70.0053C170.271 114.344 188.318 132.948 253.377 133.282C271.536 133.393 280.671 138.741 285.127 152.22C296.713 186.978 258.056 258.944 229.648 255.491C219.622 254.265 215.278 250.589 196.116 226.971C168.6 193.217 138.521 192.437 91.8436 224.075C57.7544 247.135 32.0201 245.354 19.9886 218.84C6.17471 188.316 24.7789 166.926 81.8173 147.764C129.275 131.834 135.959 127.935 143.98 111.224C150.775 96.9647 150.107 77.8035 141.975 57.6397C131.837 32.5741 132.394 18.6487 150.775 12.6329C156.568 10.7391 154.452 8.0659 147.211 8.0659C127.158 8.0659 118.692 28.118 126.49 49.7301C145.762 103.092 136.962 117.797 74.1306 137.738C5.0608 159.573 -19.1138 198.565 15.978 231.651C42.7151 256.828 73.6849 257.162 108.554 232.43C142.42 208.479 162.807 205.916 177.401 223.518C204.583 256.27 218.842 265.851 240.789 265.851C282.23 265.962 316.988 186.979 299.832 151.999C290.586 133.172 272.427 123.367 246.693 123.256C230.762 123.256 208.705 121.25 206.922 119.802C196.562 111.336 198.901 93.0668 214.163 62.8767C225.861 39.5936 226.418 26.8926 216.057 13.413C210.821 6.61744 195.336 0.490299 182.414 0.0446891C167.597 -0.623726 158.908 6.39419 177.178 8.51084Z" fill="#F8E2FF"/>
</svg>
